<svg xmlns="http://www.w3.org/2000/svg" xmlns:xlink="http://www.w3.org/1999/xlink" width="400" zoomAndPan="magnify" viewBox="0 0 300 220.499993" height="294" preserveAspectRatio="xMidYMid meet" version="1.0"><defs><g/><clipPath id="1c1ce5a492"><path d="M 136 134 L 163 134 L 163 148.550781 L 136 148.550781 Z M 136 134 " clip-rule="nonzero"/></clipPath><clipPath id="5a8ac1f176"><path d="M 70.378906 0.386719 L 229.019531 0.386719 L 229.019531 148.550781 L 70.378906 148.550781 Z M 70.378906 0.386719 " clip-rule="nonzero"/></clipPath><clipPath id="854294a8d8"><path d="M 124 12 L 229.019531 12 L 229.019531 148.550781 L 124 148.550781 Z M 124 12 " clip-rule="nonzero"/></clipPath></defs><g clip-path="url(#1c1ce5a492)"><path fill="#ed336e" d="M 162.734375 134.140625 L 152.109375 134.140625 L 136.667969 148.527344 L 147.289062 148.527344 Z M 162.734375 134.140625 " fill-opacity="1" fill-rule="nonzero"/></g><g clip-path="url(#5a8ac1f176)"><path fill="#299640" d="M 226.539062 70.875 L 157.285156 6.371094 L 152.1875 1.386719 C 151.5 0.714844 150.59375 0.40625 149.699219 0.441406 C 148.804688 0.40625 147.902344 0.714844 147.214844 1.386719 L 142.121094 6.371094 L 113.507812 33.019531 L 113.507812 27.359375 C 113.507812 26.210938 112.578125 25.28125 111.433594 25.28125 L 93.472656 25.28125 C 92.328125 25.28125 91.402344 26.210938 91.402344 27.359375 L 91.402344 53.609375 L 72.863281 70.875 C 71.277344 72.351562 70.375 74.421875 70.375 76.589844 L 70.375 84.257812 C 70.375 85.570312 71.4375 86.636719 72.75 86.636719 L 91.398438 86.636719 L 91.398438 134.613281 C 91.398438 142.296875 97.609375 148.527344 105.269531 148.527344 L 194.128906 148.527344 C 201.789062 148.527344 208 142.296875 208 134.613281 L 208 86.636719 L 226.648438 86.636719 C 227.960938 86.636719 229.023438 85.570312 229.023438 84.257812 L 229.023438 76.589844 C 229.023438 74.421875 228.125 72.351562 226.539062 70.875 Z M 192.921875 128.746094 C 192.921875 131.726562 190.511719 134.140625 187.539062 134.140625 L 111.859375 134.140625 C 108.890625 134.140625 106.480469 131.726562 106.480469 128.746094 L 106.480469 101.132812 C 116.121094 114.363281 131.566406 122.257812 147.898438 122.257812 L 148.035156 122.257812 C 150.019531 122.253906 150.699219 120.671875 150.859375 120.1875 C 151.1875 119.199219 151.105469 117.816406 149.929688 116.835938 L 145.699219 113.640625 C 144.78125 112.949219 144.476562 111.644531 145.117188 110.6875 C 145.800781 109.671875 147.1875 109.449219 148.148438 110.175781 L 148.152344 110.179688 L 152.335938 113.332031 C 152.40625 113.382812 152.472656 113.4375 152.539062 113.488281 L 159.660156 118.863281 C 161.160156 119.996094 163.222656 120.054688 164.839844 118.886719 C 165.632812 118.3125 166.207031 117.453125 166.449219 116.5 C 166.890625 114.75 166.285156 113.019531 164.894531 111.949219 L 156.332031 105.484375 C 155.511719 104.867188 155.179688 103.746094 155.628906 102.824219 C 156.234375 101.582031 157.769531 101.25 158.8125 102.042969 L 167.414062 108.53125 C 167.429688 108.542969 167.441406 108.554688 167.457031 108.566406 L 172.246094 112.179688 C 173.746094 113.3125 175.832031 113.476562 177.390625 112.425781 C 178.617188 111.601562 179.324219 110.253906 179.3125 108.785156 C 179.304688 107.4375 178.691406 106.199219 177.625 105.378906 L 166.8125 97.214844 C 165.992188 96.597656 165.660156 95.472656 166.109375 94.550781 C 166.714844 93.308594 168.246094 92.980469 169.292969 93.769531 L 180.136719 101.953125 C 180.15625 101.96875 180.171875 101.980469 180.1875 101.996094 L 181.757812 103.179688 C 183.601562 104.570312 186.433594 104.351562 187.878906 102.550781 C 188.605469 101.648438 188.9375 100.519531 188.816406 99.363281 C 188.679688 98.113281 187.957031 96.996094 186.953125 96.238281 L 157.664062 74.136719 C 155.09375 72.195312 151.554688 72.195312 148.980469 74.128906 L 140.746094 80.324219 C 135.511719 84.261719 128.203125 84.253906 122.976562 80.308594 C 121.484375 79.183594 120.652344 77.445312 120.710938 75.566406 C 120.765625 73.777344 121.722656 72.136719 123.152344 71.0625 L 137.335938 60.390625 C 138.449219 59.554688 137.519531 57.800781 136.203125 58.261719 L 112.886719 66.433594 C 110.816406 67.15625 108.652344 67.535156 106.480469 67.578125 L 106.480469 66.730469 L 147.910156 28.144531 C 148.917969 27.203125 150.484375 27.203125 151.492188 28.144531 L 192.921875 66.730469 Z M 192.921875 128.746094 " fill-opacity="1" fill-rule="nonzero"/></g><g clip-path="url(#854294a8d8)"><path fill="#ffbb02" d="M 226.539062 70.875 L 164.285156 12.890625 L 147.910156 28.144531 C 148.917969 27.203125 150.484375 27.203125 151.492188 28.144531 L 192.921875 66.730469 L 192.921875 66.894531 L 190.808594 67.28125 C 187.054688 67.972656 183.1875 67.609375 179.628906 66.238281 L 157.671875 57.765625 C 153.648438 56.214844 149.109375 56.847656 145.660156 59.441406 L 125.523438 74.585938 C 125.15625 74.863281 124.945312 75.289062 124.945312 75.75 C 124.945312 76.210938 125.152344 76.636719 125.523438 76.914062 C 129.25 79.726562 134.464844 79.730469 138.199219 76.921875 L 146.433594 70.726562 C 150.492188 67.675781 156.160156 67.679688 160.210938 70.738281 L 189.476562 92.820312 C 191.238281 94.152344 192.515625 96.066406 192.921875 98.234375 L 192.921875 128.746094 C 192.921875 131.726562 190.511719 134.140625 187.539062 134.140625 L 155.933594 134.140625 L 140.488281 148.527344 L 194.132812 148.527344 C 201.792969 148.527344 208.003906 142.296875 208.003906 134.613281 L 208.003906 86.636719 L 226.652344 86.636719 C 227.960938 86.636719 229.023438 85.570312 229.023438 84.257812 L 229.023438 76.589844 C 229.023438 74.421875 228.125 72.351562 226.539062 70.875 Z M 226.539062 70.875 " fill-opacity="1" fill-rule="nonzero"/><path fill="#ffbb02" d="M 226.539062 70.875 L 164.285156 12.890625 L 147.910156 28.144531 C 148.917969 27.203125 150.484375 27.203125 151.492188 28.144531 L 192.921875 66.730469 L 192.921875 66.894531 L 190.808594 67.28125 C 187.054688 67.972656 183.1875 67.609375 179.628906 66.238281 L 157.671875 57.765625 C 153.648438 56.214844 149.109375 56.847656 145.660156 59.441406 L 125.523438 74.585938 C 125.15625 74.863281 124.945312 75.289062 124.945312 75.75 C 124.945312 76.210938 125.152344 76.636719 125.523438 76.914062 C 129.25 79.726562 134.464844 79.730469 138.199219 76.921875 L 146.433594 70.726562 C 150.492188 67.675781 156.160156 67.679688 160.210938 70.738281 L 189.476562 92.820312 C 191.238281 94.152344 192.515625 96.066406 192.921875 98.234375 L 192.921875 128.746094 C 192.921875 131.726562 190.511719 134.140625 187.539062 134.140625 L 155.933594 134.140625 L 140.488281 148.527344 L 194.132812 148.527344 C 201.792969 148.527344 208.003906 142.296875 208.003906 134.613281 L 208.003906 86.636719 L 226.652344 86.636719 C 227.960938 86.636719 229.023438 85.570312 229.023438 84.257812 L 229.023438 76.589844 C 229.023438 74.421875 228.125 72.351562 226.539062 70.875 Z M 226.539062 70.875 " fill-opacity="1" fill-rule="nonzero"/></g><path fill="#ff914d" d="M 151.667969 24.644531 L 147.910156 28.144531 C 148.917969 27.203125 150.484375 27.203125 151.492188 28.144531 L 155.011719 31.421875 L 169.59375 17.839844 L 164.285156 12.890625 Z M 151.667969 24.644531 " fill-opacity="1" fill-rule="nonzero"/><g fill="#299640" fill-opacity="1"><g transform="translate(46.535396, 190.684163)"><g><path d="M 22 0 L 15.8125 0 L 15.8125 -9.296875 L 8.65625 -9.296875 L 8.65625 0 L 2.46875 0 L 2.46875 -22.78125 L 8.65625 -22.78125 L 8.65625 -14.34375 L 15.8125 -14.34375 L 15.8125 -22.78125 L 22 -22.78125 Z M 22 0 "/></g></g></g><g fill="#299640" fill-opacity="1"><g transform="translate(70.989583, 190.684163)"><g><path d="M 18.96875 -8.875 C 18.96875 -5.976562 18.191406 -3.722656 16.640625 -2.109375 C 15.085938 -0.492188 12.910156 0.3125 10.109375 0.3125 C 7.429688 0.3125 5.300781 -0.507812 3.71875 -2.15625 C 2.132812 -3.8125 1.34375 -6.050781 1.34375 -8.875 C 1.34375 -11.75 2.117188 -13.984375 3.671875 -15.578125 C 5.222656 -17.171875 7.398438 -17.96875 10.203125 -17.96875 C 11.941406 -17.96875 13.472656 -17.597656 14.796875 -16.859375 C 16.128906 -16.128906 17.15625 -15.070312 17.875 -13.6875 C 18.601562 -12.3125 18.96875 -10.707031 18.96875 -8.875 Z M 7.53125 -8.875 C 7.53125 -7.351562 7.734375 -6.191406 8.140625 -5.390625 C 8.546875 -4.597656 9.222656 -4.203125 10.171875 -4.203125 C 11.117188 -4.203125 11.785156 -4.597656 12.171875 -5.390625 C 12.566406 -6.191406 12.765625 -7.351562 12.765625 -8.875 C 12.765625 -10.375 12.566406 -11.507812 12.171875 -12.28125 C 11.773438 -13.050781 11.097656 -13.4375 10.140625 -13.4375 C 9.210938 -13.4375 8.546875 -13.050781 8.140625 -12.28125 C 7.734375 -11.519531 7.53125 -10.382812 7.53125 -8.875 Z M 7.53125 -8.875 "/></g></g></g><g fill="#299640" fill-opacity="1"><g transform="translate(91.329106, 190.684163)"><g><path d="M 23.78125 0 L 23.78125 -9.59375 C 23.78125 -10.789062 23.613281 -11.6875 23.28125 -12.28125 C 22.957031 -12.882812 22.445312 -13.1875 21.75 -13.1875 C 20.8125 -13.1875 20.125 -12.785156 19.6875 -11.984375 C 19.25 -11.179688 19.03125 -9.929688 19.03125 -8.234375 L 19.03125 0 L 12.921875 0 L 12.921875 -9.59375 C 12.921875 -10.789062 12.765625 -11.6875 12.453125 -12.28125 C 12.140625 -12.882812 11.632812 -13.1875 10.9375 -13.1875 C 9.988281 -13.1875 9.296875 -12.757812 8.859375 -11.90625 C 8.421875 -11.050781 8.203125 -9.660156 8.203125 -7.734375 L 8.203125 0 L 2.109375 0 L 2.109375 -17.65625 L 6.703125 -17.65625 L 7.46875 -15.484375 L 7.828125 -15.484375 C 8.296875 -16.285156 8.972656 -16.898438 9.859375 -17.328125 C 10.742188 -17.753906 11.753906 -17.96875 12.890625 -17.96875 C 15.429688 -17.96875 17.21875 -17.195312 18.25 -15.65625 L 18.734375 -15.65625 C 19.234375 -16.375 19.925781 -16.9375 20.8125 -17.34375 C 21.707031 -17.757812 22.6875 -17.96875 23.75 -17.96875 C 25.84375 -17.96875 27.382812 -17.429688 28.375 -16.359375 C 29.375 -15.296875 29.875 -13.671875 29.875 -11.484375 L 29.875 0 Z M 23.78125 0 "/></g></g></g><g fill="#299640" fill-opacity="1"><g transform="translate(123.248911, 190.684163)"><g><path d="M 10.625 0.3125 C 7.6875 0.3125 5.40625 -0.46875 3.78125 -2.03125 C 2.15625 -3.59375 1.34375 -5.820312 1.34375 -8.71875 C 1.34375 -11.695312 2.09375 -13.984375 3.59375 -15.578125 C 5.101562 -17.171875 7.253906 -17.96875 10.046875 -17.96875 C 12.710938 -17.96875 14.769531 -17.273438 16.21875 -15.890625 C 17.664062 -14.503906 18.390625 -12.503906 18.390625 -9.890625 L 18.390625 -7.1875 L 7.5 -7.1875 C 7.539062 -6.195312 7.898438 -5.421875 8.578125 -4.859375 C 9.253906 -4.296875 10.179688 -4.015625 11.359375 -4.015625 C 12.429688 -4.015625 13.414062 -4.113281 14.3125 -4.3125 C 15.21875 -4.519531 16.191406 -4.867188 17.234375 -5.359375 L 17.234375 -0.984375 C 16.285156 -0.492188 15.300781 -0.15625 14.28125 0.03125 C 13.257812 0.21875 12.039062 0.3125 10.625 0.3125 Z M 10.265625 -13.828125 C 9.554688 -13.828125 8.957031 -13.597656 8.46875 -13.140625 C 7.988281 -12.691406 7.707031 -11.984375 7.625 -11.015625 L 12.859375 -11.015625 C 12.835938 -11.867188 12.59375 -12.550781 12.125 -13.0625 C 11.664062 -13.570312 11.046875 -13.828125 10.265625 -13.828125 Z M 10.265625 -13.828125 "/></g></g></g><g fill="#299640" fill-opacity="1"><g transform="translate(142.980587, 190.684163)"><g/></g></g><g fill="#299640" fill-opacity="1"><g transform="translate(151.272255, 190.684163)"><g><path d="M 12.390625 0 L 7.734375 -16.40625 L 7.59375 -16.40625 C 7.8125 -13.613281 7.921875 -11.441406 7.921875 -9.890625 L 7.921875 0 L 2.46875 0 L 2.46875 -22.78125 L 10.65625 -22.78125 L 15.421875 -6.609375 L 15.546875 -6.609375 L 20.203125 -22.78125 L 28.421875 -22.78125 L 28.421875 0 L 22.75 0 L 22.75 -9.984375 C 22.75 -10.503906 22.753906 -11.082031 22.765625 -11.71875 C 22.785156 -12.351562 22.859375 -13.90625 22.984375 -16.375 L 22.84375 -16.375 L 18.25 0 Z M 12.390625 0 "/></g></g></g><g fill="#299640" fill-opacity="1"><g transform="translate(182.132223, 190.684163)"><g><path d="M 13.625 0 L 12.453125 -2.34375 L 12.328125 -2.34375 C 11.503906 -1.320312 10.664062 -0.625 9.8125 -0.25 C 8.96875 0.125 7.867188 0.3125 6.515625 0.3125 C 4.847656 0.3125 3.535156 -0.1875 2.578125 -1.1875 C 1.628906 -2.1875 1.15625 -3.585938 1.15625 -5.390625 C 1.15625 -7.273438 1.804688 -8.675781 3.109375 -9.59375 C 4.421875 -10.507812 6.320312 -11.023438 8.8125 -11.140625 L 11.75 -11.234375 L 11.75 -11.484375 C 11.75 -12.941406 11.03125 -13.671875 9.59375 -13.671875 C 8.3125 -13.671875 6.675781 -13.234375 4.6875 -12.359375 L 2.9375 -16.375 C 4.988281 -17.4375 7.582031 -17.96875 10.71875 -17.96875 C 12.988281 -17.96875 14.742188 -17.40625 15.984375 -16.28125 C 17.222656 -15.164062 17.84375 -13.597656 17.84375 -11.578125 L 17.84375 0 Z M 9.109375 -3.984375 C 9.835938 -3.984375 10.460938 -4.21875 10.984375 -4.6875 C 11.515625 -5.15625 11.78125 -5.765625 11.78125 -6.515625 L 11.78125 -7.890625 L 10.375 -7.828125 C 8.375 -7.753906 7.375 -7.015625 7.375 -5.609375 C 7.375 -4.523438 7.953125 -3.984375 9.109375 -3.984375 Z M 9.109375 -3.984375 "/></g></g></g><g fill="#299640" fill-opacity="1"><g transform="translate(202.019757, 190.684163)"><g><path d="M 10.75 -4.5 C 11.570312 -4.5 12.554688 -4.703125 13.703125 -5.109375 L 13.703125 -0.671875 C 12.878906 -0.316406 12.09375 -0.0664062 11.34375 0.078125 C 10.601562 0.234375 9.738281 0.3125 8.75 0.3125 C 6.695312 0.3125 5.21875 -0.1875 4.3125 -1.1875 C 3.414062 -2.195312 2.96875 -3.738281 2.96875 -5.8125 L 2.96875 -13.09375 L 0.828125 -13.09375 L 0.828125 -15.578125 L 3.53125 -17.484375 L 5.109375 -21.203125 L 9.109375 -21.203125 L 9.109375 -17.65625 L 13.4375 -17.65625 L 13.4375 -13.09375 L 9.109375 -13.09375 L 9.109375 -6.21875 C 9.109375 -5.070312 9.65625 -4.5 10.75 -4.5 Z M 10.75 -4.5 "/></g></g></g><g fill="#299640" fill-opacity="1"><g transform="translate(216.70162, 190.684163)"><g><path d="M 10.625 0.3125 C 7.6875 0.3125 5.40625 -0.46875 3.78125 -2.03125 C 2.15625 -3.59375 1.34375 -5.820312 1.34375 -8.71875 C 1.34375 -11.695312 2.09375 -13.984375 3.59375 -15.578125 C 5.101562 -17.171875 7.253906 -17.96875 10.046875 -17.96875 C 12.710938 -17.96875 14.769531 -17.273438 16.21875 -15.890625 C 17.664062 -14.503906 18.390625 -12.503906 18.390625 -9.890625 L 18.390625 -7.1875 L 7.5 -7.1875 C 7.539062 -6.195312 7.898438 -5.421875 8.578125 -4.859375 C 9.253906 -4.296875 10.179688 -4.015625 11.359375 -4.015625 C 12.429688 -4.015625 13.414062 -4.113281 14.3125 -4.3125 C 15.21875 -4.519531 16.191406 -4.867188 17.234375 -5.359375 L 17.234375 -0.984375 C 16.285156 -0.492188 15.300781 -0.15625 14.28125 0.03125 C 13.257812 0.21875 12.039062 0.3125 10.625 0.3125 Z M 10.265625 -13.828125 C 9.554688 -13.828125 8.957031 -13.597656 8.46875 -13.140625 C 7.988281 -12.691406 7.707031 -11.984375 7.625 -11.015625 L 12.859375 -11.015625 C 12.835938 -11.867188 12.59375 -12.550781 12.125 -13.0625 C 11.664062 -13.570312 11.046875 -13.828125 10.265625 -13.828125 Z M 10.265625 -13.828125 "/></g></g></g><g fill="#299640" fill-opacity="1"><g transform="translate(236.433297, 190.684163)"><g><path d="M 15.75 -5.421875 C 15.75 -3.535156 15.101562 -2.109375 13.8125 -1.140625 C 12.519531 -0.171875 10.671875 0.3125 8.265625 0.3125 C 6.953125 0.3125 5.8125 0.238281 4.84375 0.09375 C 3.875 -0.0390625 2.890625 -0.296875 1.890625 -0.671875 L 1.890625 -5.546875 C 2.828125 -5.128906 3.859375 -4.785156 4.984375 -4.515625 C 6.117188 -4.242188 7.128906 -4.109375 8.015625 -4.109375 C 9.328125 -4.109375 9.984375 -4.410156 9.984375 -5.015625 C 9.984375 -5.328125 9.800781 -5.601562 9.4375 -5.84375 C 9.070312 -6.09375 8 -6.570312 6.21875 -7.28125 C 4.59375 -7.945312 3.457031 -8.703125 2.8125 -9.546875 C 2.175781 -10.390625 1.859375 -11.460938 1.859375 -12.765625 C 1.859375 -14.410156 2.488281 -15.6875 3.75 -16.59375 C 5.019531 -17.507812 6.816406 -17.96875 9.140625 -17.96875 C 10.296875 -17.96875 11.382812 -17.835938 12.40625 -17.578125 C 13.4375 -17.328125 14.503906 -16.957031 15.609375 -16.46875 L 13.953125 -12.546875 C 13.140625 -12.910156 12.28125 -13.21875 11.375 -13.46875 C 10.46875 -13.726562 9.734375 -13.859375 9.171875 -13.859375 C 8.171875 -13.859375 7.671875 -13.613281 7.671875 -13.125 C 7.671875 -12.820312 7.84375 -12.5625 8.1875 -12.34375 C 8.539062 -12.132812 9.546875 -11.703125 11.203125 -11.046875 C 12.441406 -10.535156 13.363281 -10.035156 13.96875 -9.546875 C 14.582031 -9.066406 15.03125 -8.492188 15.3125 -7.828125 C 15.601562 -7.171875 15.75 -6.367188 15.75 -5.421875 Z M 15.75 -5.421875 "/></g></g></g><g fill="#299640" fill-opacity="1"><g transform="translate(20.298018, 215.078816)"><g><path d="M 10 -3.796875 C 10 -2.535156 9.539062 -1.554688 8.625 -0.859375 C 7.71875 -0.160156 6.488281 0.1875 4.9375 0.1875 C 3.238281 0.1875 1.9375 -0.0234375 1.03125 -0.453125 L 1.03125 -2.0625 C 1.613281 -1.8125 2.25 -1.613281 2.9375 -1.46875 C 3.625 -1.320312 4.304688 -1.25 4.984375 -1.25 C 6.085938 -1.25 6.914062 -1.457031 7.46875 -1.875 C 8.03125 -2.300781 8.3125 -2.890625 8.3125 -3.640625 C 8.3125 -4.128906 8.210938 -4.53125 8.015625 -4.84375 C 7.816406 -5.15625 7.484375 -5.445312 7.015625 -5.71875 C 6.554688 -5.988281 5.851562 -6.289062 4.90625 -6.625 C 3.582031 -7.101562 2.632812 -7.664062 2.0625 -8.3125 C 1.5 -8.957031 1.21875 -9.804688 1.21875 -10.859375 C 1.21875 -11.953125 1.628906 -12.820312 2.453125 -13.46875 C 3.273438 -14.125 4.367188 -14.453125 5.734375 -14.453125 C 7.148438 -14.453125 8.453125 -14.191406 9.640625 -13.671875 L 9.125 -12.234375 C 7.945312 -12.722656 6.800781 -12.96875 5.6875 -12.96875 C 4.8125 -12.96875 4.125 -12.78125 3.625 -12.40625 C 3.132812 -12.03125 2.890625 -11.503906 2.890625 -10.828125 C 2.890625 -10.335938 2.976562 -9.929688 3.15625 -9.609375 C 3.34375 -9.296875 3.648438 -9.007812 4.078125 -8.75 C 4.515625 -8.488281 5.175781 -8.195312 6.0625 -7.875 C 7.5625 -7.34375 8.59375 -6.769531 9.15625 -6.15625 C 9.71875 -5.550781 10 -4.765625 10 -3.796875 Z M 10 -3.796875 "/></g></g></g><g fill="#299640" fill-opacity="1"><g transform="translate(31.245468, 215.078816)"><g><path d="M 3.328125 0 L 1.71875 0 L 1.71875 -10.671875 L 3.328125 -10.671875 Z M 1.578125 -13.578125 C 1.578125 -13.941406 1.664062 -14.207031 1.84375 -14.375 C 2.03125 -14.550781 2.257812 -14.640625 2.53125 -14.640625 C 2.789062 -14.640625 3.015625 -14.550781 3.203125 -14.375 C 3.390625 -14.207031 3.484375 -13.941406 3.484375 -13.578125 C 3.484375 -13.210938 3.390625 -12.9375 3.203125 -12.75 C 3.015625 -12.570312 2.789062 -12.484375 2.53125 -12.484375 C 2.257812 -12.484375 2.03125 -12.570312 1.84375 -12.75 C 1.664062 -12.9375 1.578125 -13.210938 1.578125 -13.578125 Z M 1.578125 -13.578125 "/></g></g></g><g fill="#299640" fill-opacity="1"><g transform="translate(36.290645, 215.078816)"><g><path d="M 15.328125 0 L 15.328125 -6.953125 C 15.328125 -7.796875 15.144531 -8.429688 14.78125 -8.859375 C 14.414062 -9.285156 13.847656 -9.5 13.078125 -9.5 C 12.078125 -9.5 11.332031 -9.207031 10.84375 -8.625 C 10.363281 -8.050781 10.125 -7.164062 10.125 -5.96875 L 10.125 0 L 8.515625 0 L 8.515625 -6.953125 C 8.515625 -7.796875 8.332031 -8.429688 7.96875 -8.859375 C 7.601562 -9.285156 7.035156 -9.5 6.265625 -9.5 C 5.253906 -9.5 4.507812 -9.191406 4.03125 -8.578125 C 3.5625 -7.972656 3.328125 -6.984375 3.328125 -5.609375 L 3.328125 0 L 1.71875 0 L 1.71875 -10.671875 L 3.03125 -10.671875 L 3.296875 -9.21875 L 3.375 -9.21875 C 3.675781 -9.738281 4.101562 -10.144531 4.65625 -10.4375 C 5.21875 -10.726562 5.84375 -10.875 6.53125 -10.875 C 8.195312 -10.875 9.285156 -10.269531 9.796875 -9.0625 L 9.875 -9.0625 C 10.195312 -9.625 10.660156 -10.066406 11.265625 -10.390625 C 11.867188 -10.710938 12.554688 -10.875 13.328125 -10.875 C 14.535156 -10.875 15.4375 -10.5625 16.03125 -9.9375 C 16.632812 -9.320312 16.9375 -8.332031 16.9375 -6.96875 L 16.9375 0 Z M 15.328125 0 "/></g></g></g><g fill="#299640" fill-opacity="1"><g transform="translate(54.844819, 215.078816)"><g><path d="M 6.6875 0.1875 C 5.988281 0.1875 5.351562 0.0625 4.78125 -0.1875 C 4.207031 -0.445312 3.722656 -0.84375 3.328125 -1.375 L 3.21875 -1.375 C 3.289062 -0.75 3.328125 -0.15625 3.328125 0.40625 L 3.328125 4.796875 L 1.71875 4.796875 L 1.71875 -10.671875 L 3.03125 -10.671875 L 3.25 -9.21875 L 3.328125 -9.21875 C 3.742188 -9.800781 4.226562 -10.222656 4.78125 -10.484375 C 5.332031 -10.742188 5.96875 -10.875 6.6875 -10.875 C 8.101562 -10.875 9.191406 -10.390625 9.953125 -9.421875 C 10.722656 -8.453125 11.109375 -7.09375 11.109375 -5.34375 C 11.109375 -3.59375 10.71875 -2.234375 9.9375 -1.265625 C 9.15625 -0.296875 8.070312 0.1875 6.6875 0.1875 Z M 6.453125 -9.5 C 5.359375 -9.5 4.566406 -9.195312 4.078125 -8.59375 C 3.585938 -7.988281 3.335938 -7.023438 3.328125 -5.703125 L 3.328125 -5.34375 C 3.328125 -3.84375 3.578125 -2.769531 4.078125 -2.125 C 4.578125 -1.476562 5.378906 -1.15625 6.484375 -1.15625 C 7.410156 -1.15625 8.132812 -1.53125 8.65625 -2.28125 C 9.175781 -3.03125 9.4375 -4.0625 9.4375 -5.375 C 9.4375 -6.695312 9.175781 -7.710938 8.65625 -8.421875 C 8.132812 -9.140625 7.398438 -9.5 6.453125 -9.5 Z M 6.453125 -9.5 "/></g></g></g><g fill="#299640" fill-opacity="1"><g transform="translate(67.068173, 215.078816)"><g><path d="M 3.328125 0 L 1.71875 0 L 1.71875 -15.15625 L 3.328125 -15.15625 Z M 3.328125 0 "/></g></g></g><g fill="#299640" fill-opacity="1"><g transform="translate(72.11335, 215.078816)"><g><path d="M 3.328125 0 L 1.71875 0 L 1.71875 -10.671875 L 3.328125 -10.671875 Z M 1.578125 -13.578125 C 1.578125 -13.941406 1.664062 -14.207031 1.84375 -14.375 C 2.03125 -14.550781 2.257812 -14.640625 2.53125 -14.640625 C 2.789062 -14.640625 3.015625 -14.550781 3.203125 -14.375 C 3.390625 -14.207031 3.484375 -13.941406 3.484375 -13.578125 C 3.484375 -13.210938 3.390625 -12.9375 3.203125 -12.75 C 3.015625 -12.570312 2.789062 -12.484375 2.53125 -12.484375 C 2.257812 -12.484375 2.03125 -12.570312 1.84375 -12.75 C 1.664062 -12.9375 1.578125 -13.210938 1.578125 -13.578125 Z M 1.578125 -13.578125 "/></g></g></g><g fill="#299640" fill-opacity="1"><g transform="translate(77.158527, 215.078816)"><g><path d="M 6.53125 -9.421875 L 3.8125 -9.421875 L 3.8125 0 L 2.1875 0 L 2.1875 -9.421875 L 0.28125 -9.421875 L 0.28125 -10.15625 L 2.1875 -10.734375 L 2.1875 -11.328125 C 2.1875 -13.953125 3.332031 -15.265625 5.625 -15.265625 C 6.195312 -15.265625 6.863281 -15.148438 7.625 -14.921875 L 7.203125 -13.625 C 6.578125 -13.832031 6.046875 -13.9375 5.609375 -13.9375 C 4.992188 -13.9375 4.539062 -13.734375 4.25 -13.328125 C 3.957031 -12.921875 3.8125 -12.269531 3.8125 -11.375 L 3.8125 -10.671875 L 6.53125 -10.671875 Z M 6.53125 -9.421875 "/></g></g></g><g fill="#299640" fill-opacity="1"><g transform="translate(83.917896, 215.078816)"><g><path d="M 0.015625 -10.671875 L 1.75 -10.671875 L 4.09375 -4.59375 C 4.601562 -3.195312 4.921875 -2.191406 5.046875 -1.578125 L 5.125 -1.578125 C 5.207031 -1.910156 5.382812 -2.476562 5.65625 -3.28125 C 5.925781 -4.082031 6.804688 -6.546875 8.296875 -10.671875 L 10.03125 -10.671875 L 5.453125 1.484375 C 4.992188 2.679688 4.457031 3.53125 3.84375 4.03125 C 3.238281 4.539062 2.5 4.796875 1.625 4.796875 C 1.125 4.796875 0.632812 4.738281 0.15625 4.625 L 0.15625 3.328125 C 0.507812 3.410156 0.910156 3.453125 1.359375 3.453125 C 2.460938 3.453125 3.253906 2.828125 3.734375 1.578125 L 4.328125 0.0625 Z M 0.015625 -10.671875 "/></g></g></g><g fill="#299640" fill-opacity="1"><g transform="translate(93.969291, 215.078816)"><g><path d="M 3.328125 0 L 1.71875 0 L 1.71875 -10.671875 L 3.328125 -10.671875 Z M 1.578125 -13.578125 C 1.578125 -13.941406 1.664062 -14.207031 1.84375 -14.375 C 2.03125 -14.550781 2.257812 -14.640625 2.53125 -14.640625 C 2.789062 -14.640625 3.015625 -14.550781 3.203125 -14.375 C 3.390625 -14.207031 3.484375 -13.941406 3.484375 -13.578125 C 3.484375 -13.210938 3.390625 -12.9375 3.203125 -12.75 C 3.015625 -12.570312 2.789062 -12.484375 2.53125 -12.484375 C 2.257812 -12.484375 2.03125 -12.570312 1.84375 -12.75 C 1.664062 -12.9375 1.578125 -13.210938 1.578125 -13.578125 Z M 1.578125 -13.578125 "/></g></g></g><g fill="#299640" fill-opacity="1"><g transform="translate(99.014468, 215.078816)"><g><path d="M 9.015625 0 L 9.015625 -6.90625 C 9.015625 -7.78125 8.816406 -8.429688 8.421875 -8.859375 C 8.023438 -9.285156 7.40625 -9.5 6.5625 -9.5 C 5.445312 -9.5 4.628906 -9.195312 4.109375 -8.59375 C 3.585938 -7.988281 3.328125 -6.992188 3.328125 -5.609375 L 3.328125 0 L 1.71875 0 L 1.71875 -10.671875 L 3.03125 -10.671875 L 3.296875 -9.21875 L 3.375 -9.21875 C 3.707031 -9.738281 4.171875 -10.144531 4.765625 -10.4375 C 5.359375 -10.726562 6.023438 -10.875 6.765625 -10.875 C 8.046875 -10.875 9.007812 -10.5625 9.65625 -9.9375 C 10.3125 -9.320312 10.640625 -8.332031 10.640625 -6.96875 L 10.640625 0 Z M 9.015625 0 "/></g></g></g><g fill="#299640" fill-opacity="1"><g transform="translate(111.257301, 215.078816)"><g><path d="M 10.453125 -10.671875 L 10.453125 -9.65625 L 8.46875 -9.421875 C 8.65625 -9.191406 8.816406 -8.894531 8.953125 -8.53125 C 9.097656 -8.164062 9.171875 -7.75 9.171875 -7.28125 C 9.171875 -6.238281 8.8125 -5.40625 8.09375 -4.78125 C 7.382812 -4.15625 6.40625 -3.84375 5.15625 -3.84375 C 4.84375 -3.84375 4.546875 -3.867188 4.265625 -3.921875 C 3.578125 -3.554688 3.234375 -3.097656 3.234375 -2.546875 C 3.234375 -2.253906 3.351562 -2.035156 3.59375 -1.890625 C 3.832031 -1.753906 4.242188 -1.6875 4.828125 -1.6875 L 6.71875 -1.6875 C 7.875 -1.6875 8.757812 -1.441406 9.375 -0.953125 C 10 -0.472656 10.3125 0.226562 10.3125 1.15625 C 10.3125 2.34375 9.835938 3.242188 8.890625 3.859375 C 7.941406 4.484375 6.5625 4.796875 4.75 4.796875 C 3.351562 4.796875 2.273438 4.535156 1.515625 4.015625 C 0.753906 3.492188 0.375 2.757812 0.375 1.8125 C 0.375 1.164062 0.582031 0.601562 1 0.125 C 1.414062 -0.34375 2 -0.664062 2.75 -0.84375 C 2.476562 -0.957031 2.25 -1.144531 2.0625 -1.40625 C 1.882812 -1.664062 1.796875 -1.96875 1.796875 -2.3125 C 1.796875 -2.707031 1.898438 -3.050781 2.109375 -3.34375 C 2.316406 -3.632812 2.644531 -3.914062 3.09375 -4.1875 C 2.539062 -4.414062 2.085938 -4.800781 1.734375 -5.34375 C 1.390625 -5.894531 1.21875 -6.519531 1.21875 -7.21875 C 1.21875 -8.382812 1.566406 -9.285156 2.265625 -9.921875 C 2.972656 -10.554688 3.96875 -10.875 5.25 -10.875 C 5.8125 -10.875 6.316406 -10.804688 6.765625 -10.671875 Z M 1.9375 1.796875 C 1.9375 2.367188 2.179688 2.804688 2.671875 3.109375 C 3.160156 3.410156 3.859375 3.5625 4.765625 3.5625 C 6.117188 3.5625 7.125 3.359375 7.78125 2.953125 C 8.4375 2.546875 8.765625 1.992188 8.765625 1.296875 C 8.765625 0.710938 8.582031 0.304688 8.21875 0.078125 C 7.863281 -0.140625 7.191406 -0.25 6.203125 -0.25 L 4.265625 -0.25 C 3.535156 -0.25 2.960938 -0.0703125 2.546875 0.28125 C 2.140625 0.632812 1.9375 1.140625 1.9375 1.796875 Z M 2.8125 -7.265625 C 2.8125 -6.515625 3.019531 -5.945312 3.4375 -5.5625 C 3.863281 -5.175781 4.457031 -4.984375 5.21875 -4.984375 C 6.789062 -4.984375 7.578125 -5.75 7.578125 -7.28125 C 7.578125 -8.882812 6.78125 -9.6875 5.1875 -9.6875 C 4.425781 -9.6875 3.835938 -9.484375 3.421875 -9.078125 C 3.015625 -8.671875 2.8125 -8.066406 2.8125 -7.265625 Z M 2.8125 -7.265625 "/></g></g></g><g fill="#299640" fill-opacity="1"><g transform="translate(122.185272, 215.078816)"><g/></g></g><g fill="#299640" fill-opacity="1"><g transform="translate(127.366805, 215.078816)"><g><path d="M 5.15625 -1.140625 C 5.445312 -1.140625 5.722656 -1.160156 5.984375 -1.203125 C 6.253906 -1.242188 6.46875 -1.285156 6.625 -1.328125 L 6.625 -0.09375 C 6.445312 -0.0078125 6.1875 0.0546875 5.84375 0.109375 C 5.507812 0.160156 5.207031 0.1875 4.9375 0.1875 C 2.863281 0.1875 1.828125 -0.894531 1.828125 -3.0625 L 1.828125 -9.421875 L 0.296875 -9.421875 L 0.296875 -10.203125 L 1.828125 -10.875 L 2.515625 -13.15625 L 3.453125 -13.15625 L 3.453125 -10.671875 L 6.546875 -10.671875 L 6.546875 -9.421875 L 3.453125 -9.421875 L 3.453125 -3.140625 C 3.453125 -2.492188 3.601562 -2 3.90625 -1.65625 C 4.207031 -1.3125 4.625 -1.140625 5.15625 -1.140625 Z M 5.15625 -1.140625 "/></g></g></g><g fill="#299640" fill-opacity="1"><g transform="translate(134.408625, 215.078816)"><g><path d="M 9.015625 0 L 9.015625 -6.90625 C 9.015625 -7.78125 8.816406 -8.429688 8.421875 -8.859375 C 8.023438 -9.285156 7.40625 -9.5 6.5625 -9.5 C 5.4375 -9.5 4.613281 -9.191406 4.09375 -8.578125 C 3.582031 -7.972656 3.328125 -6.972656 3.328125 -5.578125 L 3.328125 0 L 1.71875 0 L 1.71875 -15.15625 L 3.328125 -15.15625 L 3.328125 -10.578125 C 3.328125 -10.023438 3.300781 -9.566406 3.25 -9.203125 L 3.34375 -9.203125 C 3.664062 -9.710938 4.117188 -10.113281 4.703125 -10.40625 C 5.296875 -10.707031 5.96875 -10.859375 6.71875 -10.859375 C 8.03125 -10.859375 9.007812 -10.546875 9.65625 -9.921875 C 10.3125 -9.304688 10.640625 -8.320312 10.640625 -6.96875 L 10.640625 0 Z M 9.015625 0 "/></g></g></g><g fill="#299640" fill-opacity="1"><g transform="translate(146.651458, 215.078816)"><g><path d="M 6.21875 0.1875 C 4.644531 0.1875 3.398438 -0.289062 2.484375 -1.25 C 1.578125 -2.207031 1.125 -3.539062 1.125 -5.25 C 1.125 -6.96875 1.546875 -8.332031 2.390625 -9.34375 C 3.234375 -10.363281 4.375 -10.875 5.8125 -10.875 C 7.144531 -10.875 8.203125 -10.429688 8.984375 -9.546875 C 9.765625 -8.671875 10.15625 -7.507812 10.15625 -6.0625 L 10.15625 -5.046875 L 2.796875 -5.046875 C 2.828125 -3.796875 3.140625 -2.84375 3.734375 -2.1875 C 4.335938 -1.539062 5.1875 -1.21875 6.28125 -1.21875 C 7.4375 -1.21875 8.570312 -1.457031 9.6875 -1.9375 L 9.6875 -0.5 C 9.125 -0.25 8.585938 -0.0703125 8.078125 0.03125 C 7.566406 0.132812 6.945312 0.1875 6.21875 0.1875 Z M 5.78125 -9.515625 C 4.925781 -9.515625 4.242188 -9.234375 3.734375 -8.671875 C 3.222656 -8.117188 2.921875 -7.347656 2.828125 -6.359375 L 8.421875 -6.359375 C 8.421875 -7.378906 8.191406 -8.160156 7.734375 -8.703125 C 7.273438 -9.242188 6.625 -9.515625 5.78125 -9.515625 Z M 5.78125 -9.515625 "/></g></g></g><g fill="#299640" fill-opacity="1"><g transform="translate(157.842401, 215.078816)"><g/></g></g><g fill="#299640" fill-opacity="1"><g transform="translate(163.023934, 215.078816)"><g><path d="M 5.984375 0.1875 C 4.429688 0.1875 3.234375 -0.285156 2.390625 -1.234375 C 1.546875 -2.179688 1.125 -3.523438 1.125 -5.265625 C 1.125 -7.054688 1.550781 -8.4375 2.40625 -9.40625 C 3.269531 -10.382812 4.5 -10.875 6.09375 -10.875 C 6.601562 -10.875 7.113281 -10.816406 7.625 -10.703125 C 8.132812 -10.597656 8.539062 -10.46875 8.84375 -10.3125 L 8.34375 -8.9375 C 7.976562 -9.082031 7.582031 -9.203125 7.15625 -9.296875 C 6.738281 -9.390625 6.367188 -9.4375 6.046875 -9.4375 C 3.878906 -9.4375 2.796875 -8.054688 2.796875 -5.296875 C 2.796875 -3.984375 3.0625 -2.972656 3.59375 -2.265625 C 4.125 -1.566406 4.90625 -1.21875 5.9375 -1.21875 C 6.832031 -1.21875 7.75 -1.410156 8.6875 -1.796875 L 8.6875 -0.359375 C 7.96875 0.00390625 7.066406 0.1875 5.984375 0.1875 Z M 5.984375 0.1875 "/></g></g></g><g fill="#299640" fill-opacity="1"><g transform="translate(172.520165, 215.078816)"><g><path d="M 10.9375 -5.34375 C 10.9375 -3.601562 10.492188 -2.242188 9.609375 -1.265625 C 8.734375 -0.296875 7.523438 0.1875 5.984375 0.1875 C 5.023438 0.1875 4.175781 -0.0351562 3.4375 -0.484375 C 2.695312 -0.929688 2.125 -1.570312 1.71875 -2.40625 C 1.320312 -3.238281 1.125 -4.21875 1.125 -5.34375 C 1.125 -7.082031 1.554688 -8.4375 2.421875 -9.40625 C 3.296875 -10.382812 4.503906 -10.875 6.046875 -10.875 C 7.546875 -10.875 8.734375 -10.375 9.609375 -9.375 C 10.492188 -8.382812 10.9375 -7.039062 10.9375 -5.34375 Z M 2.796875 -5.34375 C 2.796875 -3.976562 3.066406 -2.9375 3.609375 -2.21875 C 4.160156 -1.507812 4.960938 -1.15625 6.015625 -1.15625 C 7.078125 -1.15625 7.878906 -1.507812 8.421875 -2.21875 C 8.972656 -2.9375 9.25 -3.976562 9.25 -5.34375 C 9.25 -6.707031 8.972656 -7.738281 8.421875 -8.4375 C 7.878906 -9.144531 7.070312 -9.5 6 -9.5 C 4.9375 -9.5 4.132812 -9.148438 3.59375 -8.453125 C 3.0625 -7.765625 2.796875 -6.726562 2.796875 -5.34375 Z M 2.796875 -5.34375 "/></g></g></g><g fill="#299640" fill-opacity="1"><g transform="translate(184.568204, 215.078816)"><g><path d="M 9.015625 0 L 9.015625 -6.90625 C 9.015625 -7.78125 8.816406 -8.429688 8.421875 -8.859375 C 8.023438 -9.285156 7.40625 -9.5 6.5625 -9.5 C 5.4375 -9.5 4.613281 -9.191406 4.09375 -8.578125 C 3.582031 -7.972656 3.328125 -6.972656 3.328125 -5.578125 L 3.328125 0 L 1.71875 0 L 1.71875 -15.15625 L 3.328125 -15.15625 L 3.328125 -10.578125 C 3.328125 -10.023438 3.300781 -9.566406 3.25 -9.203125 L 3.34375 -9.203125 C 3.664062 -9.710938 4.117188 -10.113281 4.703125 -10.40625 C 5.296875 -10.707031 5.96875 -10.859375 6.71875 -10.859375 C 8.03125 -10.859375 9.007812 -10.546875 9.65625 -9.921875 C 10.3125 -9.304688 10.640625 -8.320312 10.640625 -6.96875 L 10.640625 0 Z M 9.015625 0 "/></g></g></g><g fill="#299640" fill-opacity="1"><g transform="translate(196.811037, 215.078816)"><g><path d="M 8.28125 0 L 7.953125 -1.515625 L 7.875 -1.515625 C 7.34375 -0.847656 6.8125 -0.394531 6.28125 -0.15625 C 5.757812 0.0703125 5.101562 0.1875 4.3125 0.1875 C 3.25 0.1875 2.414062 -0.0820312 1.8125 -0.625 C 1.21875 -1.164062 0.921875 -1.941406 0.921875 -2.953125 C 0.921875 -5.109375 2.644531 -6.238281 6.09375 -6.34375 L 7.90625 -6.40625 L 7.90625 -7.0625 C 7.90625 -7.894531 7.722656 -8.507812 7.359375 -8.90625 C 6.992188 -9.3125 6.414062 -9.515625 5.625 -9.515625 C 4.738281 -9.515625 3.734375 -9.242188 2.609375 -8.703125 L 2.109375 -9.9375 C 2.640625 -10.21875 3.21875 -10.441406 3.84375 -10.609375 C 4.46875 -10.773438 5.097656 -10.859375 5.734375 -10.859375 C 7.003906 -10.859375 7.945312 -10.570312 8.5625 -10 C 9.175781 -9.4375 9.484375 -8.53125 9.484375 -7.28125 L 9.484375 0 Z M 4.625 -1.140625 C 5.632812 -1.140625 6.425781 -1.414062 7 -1.96875 C 7.570312 -2.519531 7.859375 -3.289062 7.859375 -4.28125 L 7.859375 -5.25 L 6.25 -5.1875 C 4.957031 -5.132812 4.023438 -4.929688 3.453125 -4.578125 C 2.890625 -4.222656 2.609375 -3.675781 2.609375 -2.9375 C 2.609375 -2.351562 2.785156 -1.90625 3.140625 -1.59375 C 3.492188 -1.289062 3.988281 -1.140625 4.625 -1.140625 Z M 4.625 -1.140625 "/></g></g></g><g fill="#299640" fill-opacity="1"><g transform="translate(207.904583, 215.078816)"><g><path d="M 6.6875 -10.859375 C 8.082031 -10.859375 9.164062 -10.378906 9.9375 -9.421875 C 10.71875 -8.460938 11.109375 -7.101562 11.109375 -5.34375 C 11.109375 -3.59375 10.71875 -2.234375 9.9375 -1.265625 C 9.15625 -0.296875 8.070312 0.1875 6.6875 0.1875 C 5.988281 0.1875 5.351562 0.0625 4.78125 -0.1875 C 4.207031 -0.445312 3.722656 -0.84375 3.328125 -1.375 L 3.21875 -1.375 L 2.875 0 L 1.71875 0 L 1.71875 -15.15625 L 3.328125 -15.15625 L 3.328125 -11.484375 C 3.328125 -10.648438 3.300781 -9.90625 3.25 -9.25 L 3.328125 -9.25 C 4.085938 -10.320312 5.207031 -10.859375 6.6875 -10.859375 Z M 6.453125 -9.5 C 5.347656 -9.5 4.550781 -9.179688 4.0625 -8.546875 C 3.570312 -7.910156 3.328125 -6.84375 3.328125 -5.34375 C 3.328125 -3.84375 3.578125 -2.769531 4.078125 -2.125 C 4.578125 -1.476562 5.378906 -1.15625 6.484375 -1.15625 C 7.484375 -1.15625 8.222656 -1.515625 8.703125 -2.234375 C 9.191406 -2.960938 9.4375 -4.007812 9.4375 -5.375 C 9.4375 -6.757812 9.191406 -7.789062 8.703125 -8.46875 C 8.222656 -9.15625 7.472656 -9.5 6.453125 -9.5 Z M 6.453125 -9.5 "/></g></g></g><g fill="#299640" fill-opacity="1"><g transform="translate(220.127925, 215.078816)"><g><path d="M 3.328125 0 L 1.71875 0 L 1.71875 -10.671875 L 3.328125 -10.671875 Z M 1.578125 -13.578125 C 1.578125 -13.941406 1.664062 -14.207031 1.84375 -14.375 C 2.03125 -14.550781 2.257812 -14.640625 2.53125 -14.640625 C 2.789062 -14.640625 3.015625 -14.550781 3.203125 -14.375 C 3.390625 -14.207031 3.484375 -13.941406 3.484375 -13.578125 C 3.484375 -13.210938 3.390625 -12.9375 3.203125 -12.75 C 3.015625 -12.570312 2.789062 -12.484375 2.53125 -12.484375 C 2.257812 -12.484375 2.03125 -12.570312 1.84375 -12.75 C 1.664062 -12.9375 1.578125 -13.210938 1.578125 -13.578125 Z M 1.578125 -13.578125 "/></g></g></g><g fill="#299640" fill-opacity="1"><g transform="translate(225.173102, 215.078816)"><g><path d="M 5.15625 -1.140625 C 5.445312 -1.140625 5.722656 -1.160156 5.984375 -1.203125 C 6.253906 -1.242188 6.46875 -1.285156 6.625 -1.328125 L 6.625 -0.09375 C 6.445312 -0.0078125 6.1875 0.0546875 5.84375 0.109375 C 5.507812 0.160156 5.207031 0.1875 4.9375 0.1875 C 2.863281 0.1875 1.828125 -0.894531 1.828125 -3.0625 L 1.828125 -9.421875 L 0.296875 -9.421875 L 0.296875 -10.203125 L 1.828125 -10.875 L 2.515625 -13.15625 L 3.453125 -13.15625 L 3.453125 -10.671875 L 6.546875 -10.671875 L 6.546875 -9.421875 L 3.453125 -9.421875 L 3.453125 -3.140625 C 3.453125 -2.492188 3.601562 -2 3.90625 -1.65625 C 4.207031 -1.3125 4.625 -1.140625 5.15625 -1.140625 Z M 5.15625 -1.140625 "/></g></g></g><g fill="#299640" fill-opacity="1"><g transform="translate(232.214911, 215.078816)"><g><path d="M 8.28125 0 L 7.953125 -1.515625 L 7.875 -1.515625 C 7.34375 -0.847656 6.8125 -0.394531 6.28125 -0.15625 C 5.757812 0.0703125 5.101562 0.1875 4.3125 0.1875 C 3.25 0.1875 2.414062 -0.0820312 1.8125 -0.625 C 1.21875 -1.164062 0.921875 -1.941406 0.921875 -2.953125 C 0.921875 -5.109375 2.644531 -6.238281 6.09375 -6.34375 L 7.90625 -6.40625 L 7.90625 -7.0625 C 7.90625 -7.894531 7.722656 -8.507812 7.359375 -8.90625 C 6.992188 -9.3125 6.414062 -9.515625 5.625 -9.515625 C 4.738281 -9.515625 3.734375 -9.242188 2.609375 -8.703125 L 2.109375 -9.9375 C 2.640625 -10.21875 3.21875 -10.441406 3.84375 -10.609375 C 4.46875 -10.773438 5.097656 -10.859375 5.734375 -10.859375 C 7.003906 -10.859375 7.945312 -10.570312 8.5625 -10 C 9.175781 -9.4375 9.484375 -8.53125 9.484375 -7.28125 L 9.484375 0 Z M 4.625 -1.140625 C 5.632812 -1.140625 6.425781 -1.414062 7 -1.96875 C 7.570312 -2.519531 7.859375 -3.289062 7.859375 -4.28125 L 7.859375 -5.25 L 6.25 -5.1875 C 4.957031 -5.132812 4.023438 -4.929688 3.453125 -4.578125 C 2.890625 -4.222656 2.609375 -3.675781 2.609375 -2.9375 C 2.609375 -2.351562 2.785156 -1.90625 3.140625 -1.59375 C 3.492188 -1.289062 3.988281 -1.140625 4.625 -1.140625 Z M 4.625 -1.140625 "/></g></g></g><g fill="#299640" fill-opacity="1"><g transform="translate(243.308468, 215.078816)"><g><path d="M 5.15625 -1.140625 C 5.445312 -1.140625 5.722656 -1.160156 5.984375 -1.203125 C 6.253906 -1.242188 6.46875 -1.285156 6.625 -1.328125 L 6.625 -0.09375 C 6.445312 -0.0078125 6.1875 0.0546875 5.84375 0.109375 C 5.507812 0.160156 5.207031 0.1875 4.9375 0.1875 C 2.863281 0.1875 1.828125 -0.894531 1.828125 -3.0625 L 1.828125 -9.421875 L 0.296875 -9.421875 L 0.296875 -10.203125 L 1.828125 -10.875 L 2.515625 -13.15625 L 3.453125 -13.15625 L 3.453125 -10.671875 L 6.546875 -10.671875 L 6.546875 -9.421875 L 3.453125 -9.421875 L 3.453125 -3.140625 C 3.453125 -2.492188 3.601562 -2 3.90625 -1.65625 C 4.207031 -1.3125 4.625 -1.140625 5.15625 -1.140625 Z M 5.15625 -1.140625 "/></g></g></g><g fill="#299640" fill-opacity="1"><g transform="translate(250.3503, 215.078816)"><g><path d="M 3.328125 0 L 1.71875 0 L 1.71875 -10.671875 L 3.328125 -10.671875 Z M 1.578125 -13.578125 C 1.578125 -13.941406 1.664062 -14.207031 1.84375 -14.375 C 2.03125 -14.550781 2.257812 -14.640625 2.53125 -14.640625 C 2.789062 -14.640625 3.015625 -14.550781 3.203125 -14.375 C 3.390625 -14.207031 3.484375 -13.941406 3.484375 -13.578125 C 3.484375 -13.210938 3.390625 -12.9375 3.203125 -12.75 C 3.015625 -12.570312 2.789062 -12.484375 2.53125 -12.484375 C 2.257812 -12.484375 2.03125 -12.570312 1.84375 -12.75 C 1.664062 -12.9375 1.578125 -13.210938 1.578125 -13.578125 Z M 1.578125 -13.578125 "/></g></g></g><g fill="#299640" fill-opacity="1"><g transform="translate(255.395477, 215.078816)"><g><path d="M 10.9375 -5.34375 C 10.9375 -3.601562 10.492188 -2.242188 9.609375 -1.265625 C 8.734375 -0.296875 7.523438 0.1875 5.984375 0.1875 C 5.023438 0.1875 4.175781 -0.0351562 3.4375 -0.484375 C 2.695312 -0.929688 2.125 -1.570312 1.71875 -2.40625 C 1.320312 -3.238281 1.125 -4.21875 1.125 -5.34375 C 1.125 -7.082031 1.554688 -8.4375 2.421875 -9.40625 C 3.296875 -10.382812 4.503906 -10.875 6.046875 -10.875 C 7.546875 -10.875 8.734375 -10.375 9.609375 -9.375 C 10.492188 -8.382812 10.9375 -7.039062 10.9375 -5.34375 Z M 2.796875 -5.34375 C 2.796875 -3.976562 3.066406 -2.9375 3.609375 -2.21875 C 4.160156 -1.507812 4.960938 -1.15625 6.015625 -1.15625 C 7.078125 -1.15625 7.878906 -1.507812 8.421875 -2.21875 C 8.972656 -2.9375 9.25 -3.976562 9.25 -5.34375 C 9.25 -6.707031 8.972656 -7.738281 8.421875 -8.4375 C 7.878906 -9.144531 7.070312 -9.5 6 -9.5 C 4.9375 -9.5 4.132812 -9.148438 3.59375 -8.453125 C 3.0625 -7.765625 2.796875 -6.726562 2.796875 -5.34375 Z M 2.796875 -5.34375 "/></g></g></g><g fill="#299640" fill-opacity="1"><g transform="translate(267.443528, 215.078816)"><g><path d="M 9.015625 0 L 9.015625 -6.90625 C 9.015625 -7.78125 8.816406 -8.429688 8.421875 -8.859375 C 8.023438 -9.285156 7.40625 -9.5 6.5625 -9.5 C 5.445312 -9.5 4.628906 -9.195312 4.109375 -8.59375 C 3.585938 -7.988281 3.328125 -6.992188 3.328125 -5.609375 L 3.328125 0 L 1.71875 0 L 1.71875 -10.671875 L 3.03125 -10.671875 L 3.296875 -9.21875 L 3.375 -9.21875 C 3.707031 -9.738281 4.171875 -10.144531 4.765625 -10.4375 C 5.359375 -10.726562 6.023438 -10.875 6.765625 -10.875 C 8.046875 -10.875 9.007812 -10.5625 9.65625 -9.9375 C 10.3125 -9.320312 10.640625 -8.332031 10.640625 -6.96875 L 10.640625 0 Z M 9.015625 0 "/></g></g></g></svg>