<svg xmlns="http://www.w3.org/2000/svg" xmlns:xlink="http://www.w3.org/1999/xlink" width="231" zoomAndPan="magnify" viewBox="0 0 173.25 104.999996" height="140" preserveAspectRatio="xMidYMid meet" version="1.0"><defs><clipPath id="fcf5cd0ee5"><path d="M 113 20 L 166 20 L 166 99 L 113 99 Z M 113 20 " clip-rule="nonzero"/></clipPath><clipPath id="e0d3c27ee1"><path d="M 112.941406 99.558594 L 109.886719 20.460938 L 168.835938 18.183594 L 171.890625 97.285156 Z M 112.941406 99.558594 " clip-rule="nonzero"/></clipPath><clipPath id="e2ae721b4a"><path d="M 112.941406 99.558594 L 109.886719 20.460938 L 168.835938 18.183594 L 171.890625 97.285156 Z M 112.941406 99.558594 " clip-rule="nonzero"/></clipPath><clipPath id="2c36e6f571"><path d="M 1 14 L 152 14 L 152 99.207031 L 1 99.207031 Z M 1 14 " clip-rule="nonzero"/></clipPath></defs><g clip-path="url(#fcf5cd0ee5)"><g clip-path="url(#e0d3c27ee1)"><g clip-path="url(#e2ae721b4a)"><path fill="#ffbb02" d="M 119.542969 56.929688 C 119.621094 71.734375 117.738281 80.648438 117.527344 80.914062 C 115.941406 87.789062 112.671875 92.632812 113.574219 95.628906 C 114.222656 97.773438 115.960938 99.433594 121.152344 97.839844 C 134.625 93.714844 137.296875 89.507812 142.984375 82.195312 C 153.570312 68.578125 169.9375 46.769531 164.5625 30.351562 C 161.203125 20.089844 141.003906 19.261719 130.351562 20.710938 C 113.828125 22.964844 119.394531 29.695312 119.542969 56.929688 Z M 119.542969 56.929688 " fill-opacity="1" fill-rule="nonzero"/></g></g></g><path fill="#299640" d="M 3.441406 75.898438 C 6.445312 88.574219 16.332031 91.667969 32.511719 94.949219 C 60.441406 100.613281 106.277344 104.347656 114.101562 77.015625 C 116.664062 68.0625 118.5 38.296875 106.328125 27.960938 C 97.898438 20.800781 77.308594 15.21875 72.226562 13.617188 C 30.539062 0.550781 22.363281 1.882812 15.265625 5.886719 C 1.472656 13.664062 0.550781 63.683594 3.441406 75.898438 Z M 3.441406 75.898438 " fill-opacity="1" fill-rule="nonzero"/><g clip-path="url(#2c36e6f571)"><path fill="#000001" d="M 80.035156 24.207031 C 78.464844 27.390625 78.210938 30.652344 78.203125 32.304688 C 78.175781 36.367188 79.347656 38.851562 79.867188 38.859375 C 79.871094 38.859375 79.871094 38.859375 79.871094 38.859375 C 80.097656 38.859375 80.960938 37.8125 81.085938 32.667969 C 81.164062 29.382812 80.8125 26.554688 80.035156 24.207031 Z M 82.054688 50.175781 C 82.277344 52.320312 82.273438 55.121094 82.109375 57.859375 C 107.929688 57.78125 130 57.207031 133.773438 56.527344 C 130.46875 53.292969 124.792969 48.238281 122.398438 47.820312 C 119.300781 47.277344 87.988281 46.53125 84.203125 46.773438 C 83.441406 46.824219 82.644531 48.109375 82.054688 50.175781 Z M 81.3125 54.230469 C 81.195312 55.363281 81.136719 56.585938 81.152344 57.863281 C 81.164062 57.863281 81.167969 57.863281 81.179688 57.863281 C 81.253906 56.644531 81.300781 55.410156 81.3125 54.230469 Z M 27.128906 56.28125 C 29.707031 57.292969 50.710938 57.929688 80.261719 57.863281 C 80.230469 55.148438 80.542969 52.335938 81.148438 50.121094 C 81.042969 49.117188 80.878906 48.285156 80.648438 47.710938 C 80.480469 47.289062 80.285156 47.039062 80.121094 47.039062 C 78.867188 47.039062 71.609375 47.234375 63.203125 47.460938 C 52.226562 47.753906 39.789062 48.089844 36.976562 48.089844 C 34.363281 48.089844 29.535156 52.507812 27.128906 56.28125 Z M 81.644531 62.652344 C 82.253906 65.496094 83.460938 67.71875 85.503906 67.769531 C 91.433594 67.917969 122.679688 67.8125 132.117188 67.777344 C 133.230469 67.773438 134.160156 66.902344 134.226562 65.796875 C 134.394531 63.15625 134.632812 60.058594 134.972656 56.890625 C 134.953125 56.941406 134.921875 56.988281 134.886719 57.03125 C 134.652344 57.300781 134.21875 57.804688 117.605469 58.265625 C 107.925781 58.535156 95 58.707031 82.050781 58.746094 C 81.949219 60.117188 81.8125 61.449219 81.644531 62.652344 Z M 48.277344 80.488281 C 64.167969 81.140625 104.667969 82.539062 129.53125 81.039062 C 128.957031 80.449219 128.300781 80.089844 127.546875 80.03125 C 94.34375 77.453125 61.878906 79.410156 48.277344 80.488281 Z M 127.453125 83.796875 C 127.277344 83.796875 127.121094 83.878906 127.019531 84.019531 C 126.917969 84.160156 126.890625 84.335938 126.945312 84.5 L 130.847656 96.0625 C 130.925781 96.292969 131.152344 96.441406 131.390625 96.425781 L 132.363281 96.359375 C 132.644531 96.34375 132.867188 96.105469 132.863281 95.824219 C 132.828125 91.464844 132.320312 86.894531 131.140625 83.796875 Z M 23.199219 80.820312 C 25.191406 81.605469 27.28125 81.921875 28.5 82.046875 C 28.886719 82.085938 29.246094 82.285156 29.484375 82.59375 C 29.722656 82.902344 29.824219 83.300781 29.761719 83.6875 L 27.476562 97.695312 C 27.449219 97.851562 27.492188 98.003906 27.597656 98.125 C 27.699219 98.246094 27.84375 98.3125 28.003906 98.3125 L 29.765625 98.3125 C 30.019531 98.3125 30.234375 98.144531 30.289062 97.902344 L 34.144531 81.476562 C 34.183594 81.316406 34.144531 81.152344 34.042969 81.023438 C 33.941406 80.894531 33.789062 80.820312 33.621094 80.820312 Z M 2.28125 79.933594 L 19.84375 79.933594 C 19 79.253906 18.289062 78.425781 17.816406 77.414062 C 15.699219 72.894531 6.425781 45.035156 10.175781 38.730469 C 10.695312 37.851562 11.4375 37.375 12.378906 37.3125 C 17.0625 36.988281 19.496094 45.625 21.855469 53.972656 C 23.601562 60.136719 25.40625 66.511719 27.851562 67.820312 C 30.320312 69.140625 41.019531 69.753906 55.113281 69.382812 C 69.148438 69.019531 78.773438 67.914062 79.640625 67.101562 C 80.015625 66.75 80.410156 64.992188 80.722656 62.652344 C 80.488281 61.5 80.339844 60.191406 80.28125 58.75 C 66.816406 58.777344 28.894531 58.691406 26.40625 56.898438 C 26.066406 56.65625 26.058594 56.308594 26.203125 56.078125 C 28.476562 52.371094 33.675781 47.203125 36.976562 47.203125 C 39.777344 47.203125 52.207031 46.867188 63.175781 46.570312 C 71.589844 46.347656 78.855469 46.152344 80.121094 46.152344 C 80.695312 46.152344 81.152344 46.5625 81.476562 47.378906 C 81.585938 47.648438 81.679688 47.96875 81.761719 48.328125 C 82.386719 46.882812 83.1875 45.953125 84.144531 45.890625 C 87.945312 45.644531 119.433594 46.398438 122.554688 46.945312 C 125.910156 47.535156 133.949219 55.445312 134.855469 56.34375 C 134.933594 56.425781 134.984375 56.519531 135.003906 56.617188 C 136 47.410156 137.839844 37.75 141.175781 37.316406 C 141.726562 37.242188 141.972656 37.097656 141.976562 36.980469 C 141.992188 35.859375 136.308594 32.382812 132.179688 31.714844 C 131.128906 31.546875 130.195312 31.777344 129.324219 32.425781 C 126.214844 34.730469 125.035156 41.558594 124.671875 44.386719 C 124.53125 45.5 123.535156 46.289062 122.40625 46.183594 C 117.628906 45.726562 104.066406 44.664062 81.402344 44.664062 C 59.050781 44.664062 42.289062 45.804688 37.6875 46.15625 C 36.785156 46.222656 35.984375 45.605469 35.824219 44.722656 C 35.351562 42.121094 33.410156 33.492188 28.199219 31.699219 C 26.875 31.242188 24.558594 31.917969 22.214844 32.941406 C 19.222656 36.03125 15.4375 36.609375 15.375 36.621094 C 15.167969 36.648438 14.96875 36.53125 14.894531 36.335938 C 14.824219 36.140625 14.894531 35.921875 15.066406 35.808594 C 15.292969 35.660156 18.4375 33.617188 21.792969 32.152344 C 23.515625 30.257812 24.90625 27.386719 24.90625 23.050781 C 24.90625 20.84375 25.660156 19.023438 27.148438 17.632812 C 31.761719 13.324219 42.496094 13.992188 50.328125 14.484375 C 52.453125 14.617188 54.285156 14.730469 55.730469 14.730469 C 56.804688 14.730469 58.058594 14.65625 59.386719 14.582031 C 65.027344 14.253906 72.75 13.808594 77.53125 18.402344 C 78.609375 19.4375 79.496094 20.695312 80.183594 22.164062 C 80.449219 21.761719 80.742188 21.363281 81.058594 20.972656 C 84.257812 17.023438 89.1875 15.011719 95.707031 14.992188 C 99.359375 14.980469 102.8125 14.929688 105.855469 14.882812 C 124.796875 14.59375 134.304688 14.449219 135.25 24.9375 C 135.832031 31.386719 138.699219 32.191406 142.019531 33.121094 C 144.542969 33.832031 147.15625 34.5625 148.847656 37.8125 C 151.953125 43.769531 147.167969 66.605469 141.816406 76.453125 C 140.140625 79.542969 138.507812 81.1875 136.964844 81.34375 C 135.179688 81.527344 133.257812 81.683594 131.21875 81.820312 C 131.414062 82.160156 131.59375 82.527344 131.761719 82.910156 L 150.734375 82.910156 C 150.746094 82.910156 150.757812 82.910156 150.765625 82.910156 C 150.859375 82.917969 151.320312 83.839844 150.71875 83.796875 L 132.109375 83.796875 C 133.476562 87.632812 133.730469 92.894531 133.757812 95.816406 C 133.761719 96.570312 133.175781 97.199219 132.421875 97.246094 L 131.453125 97.3125 C 130.804688 97.351562 130.207031 96.957031 130 96.34375 L 126.097656 84.78125 C 125.949219 84.34375 126.019531 83.875 126.292969 83.5 C 126.566406 83.125 126.988281 82.910156 127.453125 82.910156 L 130.761719 82.910156 C 130.585938 82.539062 130.398438 82.195312 130.195312 81.890625 C 98.96875 83.847656 42.148438 81.113281 41.53125 81.082031 C 41.300781 81.070312 41.113281 80.882812 41.109375 80.652344 C 41.101562 80.421875 41.273438 80.222656 41.507812 80.199219 C 41.929688 80.152344 84.140625 75.769531 127.617188 79.148438 C 128.867188 79.246094 129.863281 79.921875 130.660156 80.96875 C 132.875 80.824219 134.957031 80.65625 136.871094 80.460938 C 137.71875 80.375 139.125 79.535156 141.03125 76.03125 C 146.214844 66.492188 150.976562 43.828125 148.054688 38.222656 C 146.539062 35.3125 144.226562 34.664062 141.777344 33.976562 C 138.445312 33.042969 134.996094 32.074219 134.359375 25.015625 C 133.488281 15.351562 124.832031 15.484375 105.867188 15.773438 C 102.820312 15.816406 99.371094 15.871094 95.707031 15.882812 C 87.277344 15.90625 82.882812 19.335938 80.605469 23.15625 C 81.609375 25.753906 82.070312 28.941406 81.976562 32.691406 C 81.863281 37.390625 81.148438 39.765625 79.855469 39.746094 C 78.253906 39.722656 77.289062 35.863281 77.308594 32.296875 C 77.320312 30.210938 77.671875 26.546875 79.617188 23.089844 C 78.945312 21.476562 78.042969 20.125 76.910156 19.039062 C 72.410156 14.714844 65.21875 15.132812 59.441406 15.46875 C 58.097656 15.546875 56.832031 15.617188 55.730469 15.617188 C 54.257812 15.617188 52.414062 15.503906 50.273438 15.371094 C 42.601562 14.890625 32.09375 14.234375 27.757812 18.28125 C 26.441406 19.511719 25.800781 21.070312 25.800781 23.050781 C 25.800781 26.796875 24.789062 29.523438 23.398438 31.507812 C 25.347656 30.800781 27.222656 30.421875 28.492188 30.859375 C 34.003906 32.757812 36.070312 41.074219 36.703125 44.5625 C 36.78125 45 37.175781 45.300781 37.617188 45.269531 C 42.230469 44.917969 59.019531 43.773438 81.402344 43.773438 C 104.105469 43.773438 117.699219 44.839844 122.492188 45.300781 C 123.140625 45.359375 123.707031 44.910156 123.785156 44.273438 C 124.253906 40.621094 125.527344 34.132812 128.789062 31.714844 C 129.847656 30.925781 131.039062 30.632812 132.324219 30.839844 C 136.011719 31.4375 142.902344 34.90625 142.871094 36.996094 C 142.863281 37.449219 142.582031 38.027344 141.289062 38.195312 C 138.539062 38.554688 136.175781 49.152344 135.121094 65.851562 C 135.019531 67.421875 133.703125 68.660156 132.117188 68.664062 C 122.679688 68.699219 91.425781 68.804688 85.480469 68.65625 C 83.632812 68.609375 82.191406 67.21875 81.296875 64.75 C 80.992188 66.28125 80.632812 67.390625 80.253906 67.746094 C 78.632812 69.269531 63.113281 70.0625 55.136719 70.273438 C 43.804688 70.566406 30.578125 70.285156 27.429688 68.601562 C 24.648438 67.117188 22.875 60.847656 20.996094 54.210938 C 18.835938 46.578125 16.390625 37.929688 12.4375 38.199219 C 11.800781 38.242188 11.3125 38.5625 10.945312 39.183594 C 7.417969 45.113281 16.613281 72.746094 18.625 77.039062 C 19.207031 78.28125 20.214844 79.222656 21.386719 79.933594 L 33.621094 79.933594 C 34.0625 79.933594 34.46875 80.128906 34.742188 80.472656 C 35.015625 80.8125 35.117188 81.253906 35.015625 81.675781 L 31.160156 98.101562 C 31.007812 98.75 30.433594 99.199219 29.765625 99.199219 L 28.003906 99.199219 C 27.585938 99.199219 27.1875 99.019531 26.914062 98.699219 C 26.644531 98.382812 26.527344 97.964844 26.59375 97.550781 L 28.878906 83.546875 C 28.902344 83.398438 28.867188 83.253906 28.773438 83.132812 C 28.683594 83.015625 28.554688 82.945312 28.40625 82.929688 C 26.78125 82.765625 23.683594 82.269531 21.15625 80.820312 L 2.28125 80.820312 C 1.039062 80.820312 0.703125 79.933594 2.28125 79.933594 " fill-opacity="1" fill-rule="nonzero"/></g></svg>