<svg xmlns="http://www.w3.org/2000/svg" xmlns:xlink="http://www.w3.org/1999/xlink" width="500" zoomAndPan="magnify" viewBox="0 0 375 374.999991" height="500" preserveAspectRatio="xMidYMid meet" version="1.0"><defs><clipPath id="4b78a87f1b"><path d="M 156 328 L 219 328 L 219 362.390625 L 156 362.390625 Z M 156 328 " clip-rule="nonzero"/></clipPath><clipPath id="13a61ee83f"><path d="M 0 13 L 375 13 L 375 362.390625 L 0 362.390625 Z M 0 13 " clip-rule="nonzero"/></clipPath><clipPath id="e28c09ef94"><path d="M 128 42 L 375 42 L 375 362.390625 L 128 362.390625 Z M 128 42 " clip-rule="nonzero"/></clipPath></defs><g clip-path="url(#4b78a87f1b)"><path fill="#ed336e" d="M 218.304688 328.394531 L 193.199219 328.394531 L 156.695312 362.324219 L 181.800781 362.324219 Z M 218.304688 328.394531 " fill-opacity="1" fill-rule="nonzero"/></g><g clip-path="url(#13a61ee83f)"><path fill="#299640" d="M 369.132812 179.160156 L 205.425781 27.007812 L 193.375 15.25 C 191.75 13.664062 189.617188 12.9375 187.5 13.015625 C 185.382812 12.9375 183.25 13.664062 181.625 15.25 L 169.578125 27.003906 L 101.941406 89.867188 L 101.941406 76.511719 C 101.941406 73.804688 99.746094 71.609375 97.042969 71.609375 L 54.585938 71.609375 C 51.882812 71.609375 49.6875 73.804688 49.6875 76.511719 L 49.6875 138.433594 L 5.867188 179.160156 C 2.121094 182.640625 -0.0117188 187.527344 -0.0117188 192.644531 L -0.0117188 210.726562 C -0.0117188 213.824219 2.503906 216.339844 5.597656 216.339844 L 49.683594 216.339844 L 49.683594 329.511719 C 49.683594 347.632812 64.363281 362.324219 82.472656 362.324219 L 292.523438 362.324219 C 310.632812 362.324219 325.3125 347.632812 325.3125 329.511719 L 325.3125 216.339844 L 369.398438 216.339844 C 372.492188 216.339844 375.003906 213.824219 375.003906 210.726562 L 375.003906 192.644531 C 375.011719 187.527344 372.878906 182.640625 369.132812 179.160156 Z M 289.664062 315.667969 C 289.664062 322.699219 283.972656 328.394531 276.945312 328.394531 L 98.054688 328.394531 C 91.027344 328.394531 85.335938 322.699219 85.335938 315.667969 L 85.335938 250.539062 C 108.125 281.746094 144.632812 300.363281 183.238281 300.363281 L 183.566406 300.363281 C 188.253906 300.355469 189.859375 296.625 190.234375 295.480469 C 191.011719 293.144531 190.820312 289.882812 188.039062 287.578125 L 178.035156 280.039062 C 175.871094 278.410156 175.152344 275.324219 176.667969 273.074219 C 178.285156 270.675781 181.554688 270.148438 183.832031 271.863281 L 183.839844 271.867188 L 193.734375 279.308594 C 193.890625 279.425781 194.054688 279.554688 194.207031 279.679688 L 211.039062 292.355469 C 214.589844 295.03125 219.464844 295.167969 223.285156 292.410156 C 225.164062 291.058594 226.519531 289.03125 227.089844 286.785156 C 228.136719 282.660156 226.703125 278.566406 223.417969 276.050781 L 203.175781 260.800781 C 201.238281 259.34375 200.449219 256.695312 201.511719 254.519531 C 202.941406 251.589844 206.570312 250.8125 209.042969 252.679688 L 229.371094 267.988281 C 229.40625 268.011719 229.4375 268.042969 229.472656 268.066406 L 240.792969 276.59375 C 244.34375 279.265625 249.265625 279.652344 252.953125 277.175781 C 255.855469 275.226562 257.527344 272.046875 257.5 268.585938 C 257.480469 265.410156 256.03125 262.484375 253.511719 260.550781 L 227.949219 241.289062 C 226.011719 239.832031 225.222656 237.183594 226.28125 235.007812 C 227.714844 232.078125 231.339844 231.300781 233.8125 233.167969 L 259.441406 252.472656 C 259.488281 252.5 259.527344 252.53125 259.566406 252.566406 L 263.277344 255.363281 C 267.632812 258.644531 274.328125 258.128906 277.75 253.878906 C 279.46875 251.746094 280.25 249.085938 279.960938 246.363281 C 279.640625 243.40625 277.933594 240.773438 275.558594 238.988281 L 206.328125 186.851562 C 200.246094 182.277344 191.878906 182.269531 185.796875 186.835938 L 166.328125 201.449219 C 153.957031 210.738281 136.6875 210.722656 124.328125 201.414062 C 120.804688 198.757812 118.835938 194.660156 118.96875 190.230469 C 119.105469 186.007812 121.367188 182.136719 124.742188 179.601562 L 158.273438 154.433594 C 160.90625 152.457031 158.703125 148.320312 155.59375 149.40625 L 100.480469 168.679688 C 95.585938 170.390625 90.472656 171.28125 85.328125 171.386719 L 85.328125 169.382812 L 183.265625 78.367188 C 185.652344 76.144531 189.347656 76.144531 191.734375 78.367188 L 289.664062 169.382812 Z M 289.664062 315.667969 " fill-opacity="1" fill-rule="nonzero"/></g><g clip-path="url(#e28c09ef94)"><path fill="#ffbb02" d="M 369.132812 179.160156 L 221.972656 42.390625 L 183.265625 78.367188 C 185.652344 76.144531 189.347656 76.144531 191.734375 78.367188 L 289.664062 169.382812 L 289.664062 169.769531 L 284.671875 170.6875 C 275.800781 172.3125 266.660156 171.460938 258.242188 168.222656 L 206.339844 148.242188 C 196.828125 144.578125 186.097656 146.070312 177.949219 152.191406 L 130.351562 187.917969 C 129.480469 188.574219 128.984375 189.570312 128.976562 190.660156 C 128.976562 191.75 129.472656 192.746094 130.347656 193.402344 C 139.160156 200.042969 151.484375 200.050781 160.316406 193.425781 L 179.78125 178.816406 C 189.371094 171.609375 202.765625 171.625 212.347656 178.839844 L 281.519531 230.925781 C 285.6875 234.066406 288.703125 238.578125 289.664062 243.695312 L 289.664062 315.667969 C 289.664062 322.699219 283.972656 328.394531 276.945312 328.394531 L 202.234375 328.394531 L 165.726562 362.324219 L 292.527344 362.324219 C 310.636719 362.324219 325.316406 347.632812 325.316406 329.511719 L 325.316406 216.339844 L 369.402344 216.339844 C 372.496094 216.339844 375.011719 213.824219 375.011719 210.726562 L 375.011719 192.644531 C 375.011719 187.527344 372.878906 182.640625 369.132812 179.160156 Z M 369.132812 179.160156 " fill-opacity="1" fill-rule="nonzero"/><path fill="#ffbb02" d="M 369.132812 179.160156 L 221.972656 42.390625 L 183.265625 78.367188 C 185.652344 76.144531 189.347656 76.144531 191.734375 78.367188 L 289.664062 169.382812 L 289.664062 169.769531 L 284.671875 170.6875 C 275.800781 172.3125 266.660156 171.460938 258.242188 168.222656 L 206.339844 148.242188 C 196.828125 144.578125 186.097656 146.070312 177.949219 152.191406 L 130.351562 187.917969 C 129.480469 188.574219 128.984375 189.570312 128.976562 190.660156 C 128.976562 191.75 129.472656 192.746094 130.347656 193.402344 C 139.160156 200.042969 151.484375 200.050781 160.316406 193.425781 L 179.78125 178.816406 C 189.371094 171.609375 202.765625 171.625 212.347656 178.839844 L 281.519531 230.925781 C 285.6875 234.066406 288.703125 238.578125 289.664062 243.695312 L 289.664062 315.667969 C 289.664062 322.699219 283.972656 328.394531 276.945312 328.394531 L 202.234375 328.394531 L 165.726562 362.324219 L 292.527344 362.324219 C 310.636719 362.324219 325.316406 347.632812 325.316406 329.511719 L 325.316406 216.339844 L 369.402344 216.339844 C 372.496094 216.339844 375.011719 213.824219 375.011719 210.726562 L 375.011719 192.644531 C 375.011719 187.527344 372.878906 182.640625 369.132812 179.160156 Z M 369.132812 179.160156 " fill-opacity="1" fill-rule="nonzero"/></g><path fill="#ff914d" d="M 192.148438 70.113281 L 183.265625 78.367188 C 185.652344 76.144531 189.347656 76.144531 191.734375 78.367188 L 200.054688 86.097656 L 234.527344 54.054688 L 221.972656 42.390625 Z M 192.148438 70.113281 " fill-opacity="1" fill-rule="nonzero"/></svg>