<svg xmlns="http://www.w3.org/2000/svg" xmlns:xlink="http://www.w3.org/1999/xlink" width="537" zoomAndPan="magnify" viewBox="0 0 402.75 80.999996" height="108" preserveAspectRatio="xMidYMid meet" version="1.0"><defs><g/><clipPath id="fac2f52b92"><path d="M 36 72 L 51 72 L 51 80.664062 L 36 80.664062 Z M 36 72 " clip-rule="nonzero"/></clipPath><clipPath id="39134c6779"><path d="M 0.320312 0.414062 L 86.570312 0.414062 L 86.570312 80.664062 L 0.320312 80.664062 Z M 0.320312 0.414062 " clip-rule="nonzero"/></clipPath><clipPath id="dde96b3d3b"><path d="M 29 7 L 86.570312 7 L 86.570312 80.664062 L 29 80.664062 Z M 29 7 " clip-rule="nonzero"/></clipPath></defs><g clip-path="url(#fac2f52b92)"><path fill="#ed336e" d="M 50.53125 72.855469 L 44.757812 72.855469 L 36.363281 80.644531 L 42.136719 80.644531 Z M 50.53125 72.855469 " fill-opacity="1" fill-rule="nonzero"/></g><g clip-path="url(#39134c6779)"><path fill="#299640" d="M 85.222656 38.59375 L 47.570312 3.65625 L 44.796875 0.957031 C 44.425781 0.59375 43.933594 0.425781 43.445312 0.445312 C 42.960938 0.425781 42.46875 0.59375 42.09375 0.957031 L 39.324219 3.65625 L 23.769531 18.089844 L 23.769531 15.023438 C 23.769531 14.402344 23.265625 13.898438 22.640625 13.898438 L 12.878906 13.898438 C 12.253906 13.898438 11.75 14.402344 11.75 15.023438 L 11.75 29.242188 L 1.671875 38.59375 C 0.808594 39.390625 0.320312 40.511719 0.320312 41.6875 L 0.320312 45.839844 C 0.320312 46.550781 0.898438 47.128906 1.609375 47.128906 L 11.75 47.128906 L 11.75 73.113281 C 11.75 77.273438 15.125 80.644531 19.289062 80.644531 L 67.601562 80.644531 C 71.765625 80.644531 75.144531 77.273438 75.144531 73.113281 L 75.144531 47.128906 L 85.28125 47.128906 C 85.996094 47.128906 86.574219 46.550781 86.574219 45.839844 L 86.574219 41.6875 C 86.574219 40.511719 86.085938 39.390625 85.222656 38.59375 Z M 66.945312 69.933594 C 66.945312 71.546875 65.636719 72.855469 64.019531 72.855469 L 22.875 72.855469 C 21.257812 72.855469 19.949219 71.546875 19.949219 69.933594 L 19.949219 54.980469 C 25.191406 62.144531 33.589844 66.421875 42.46875 66.421875 L 42.542969 66.421875 C 43.621094 66.417969 43.988281 65.5625 44.074219 65.300781 C 44.253906 64.761719 44.210938 64.015625 43.570312 63.484375 L 41.269531 61.753906 C 40.773438 61.378906 40.605469 60.671875 40.957031 60.15625 C 41.328125 59.601562 42.078125 59.484375 42.605469 59.875 L 42.605469 59.878906 L 44.878906 61.585938 C 44.917969 61.613281 44.953125 61.640625 44.988281 61.671875 L 48.859375 64.582031 C 49.679688 65.195312 50.800781 65.226562 51.675781 64.59375 C 52.109375 64.285156 52.421875 63.816406 52.554688 63.300781 C 52.792969 62.355469 52.464844 61.414062 51.707031 60.835938 L 47.050781 57.335938 C 46.605469 57.003906 46.425781 56.394531 46.667969 55.894531 C 47 55.222656 47.832031 55.042969 48.402344 55.472656 L 53.078125 58.984375 C 53.085938 58.992188 53.09375 59 53.101562 59.003906 L 55.703125 60.960938 C 56.519531 61.578125 57.652344 61.664062 58.5 61.097656 C 59.167969 60.648438 59.554688 59.917969 59.546875 59.125 C 59.542969 58.394531 59.207031 57.722656 58.628906 57.277344 L 52.75 52.855469 C 52.304688 52.523438 52.125 51.914062 52.367188 51.414062 C 52.695312 50.742188 53.53125 50.5625 54.097656 50.992188 L 59.992188 55.425781 C 60.003906 55.429688 60.011719 55.4375 60.023438 55.445312 L 60.875 56.085938 C 61.878906 56.839844 63.417969 56.722656 64.203125 55.746094 C 64.601562 55.257812 64.78125 54.648438 64.710938 54.023438 C 64.640625 53.34375 64.246094 52.738281 63.699219 52.328125 L 47.777344 40.359375 C 46.378906 39.308594 44.453125 39.304688 43.054688 40.355469 L 38.578125 43.710938 C 35.734375 45.84375 31.761719 45.839844 28.917969 43.703125 C 28.105469 43.089844 27.65625 42.152344 27.683594 41.132812 C 27.714844 40.164062 28.238281 39.273438 29.011719 38.695312 L 36.726562 32.914062 C 37.328125 32.460938 36.824219 31.511719 36.109375 31.761719 L 23.433594 36.1875 C 22.308594 36.578125 21.128906 36.785156 19.949219 36.808594 L 19.949219 36.347656 L 42.472656 15.449219 C 43.023438 14.941406 43.871094 14.941406 44.421875 15.449219 L 66.945312 36.347656 Z M 66.945312 69.933594 " fill-opacity="1" fill-rule="nonzero"/></g><g clip-path="url(#dde96b3d3b)"><path fill="#ffbb02" d="M 85.222656 38.59375 L 51.375 7.1875 L 42.472656 15.449219 C 43.023438 14.941406 43.871094 14.941406 44.421875 15.449219 L 66.945312 36.347656 L 66.945312 36.4375 L 65.796875 36.648438 C 63.757812 37.019531 61.652344 36.824219 59.71875 36.082031 L 47.78125 31.492188 C 45.59375 30.652344 43.125 30.996094 41.25 32.398438 L 30.300781 40.601562 C 30.101562 40.753906 29.988281 40.980469 29.988281 41.230469 C 29.988281 41.484375 30.101562 41.710938 30.300781 41.863281 C 32.328125 43.386719 35.164062 43.386719 37.195312 41.867188 L 41.671875 38.511719 C 43.878906 36.859375 46.957031 36.863281 49.160156 38.519531 L 65.070312 50.476562 C 66.03125 51.199219 66.722656 52.234375 66.945312 53.410156 L 66.945312 69.933594 C 66.945312 71.546875 65.636719 72.855469 64.019531 72.855469 L 46.835938 72.855469 L 38.4375 80.644531 L 67.605469 80.644531 C 71.769531 80.644531 75.144531 77.273438 75.144531 73.113281 L 75.144531 47.128906 L 85.285156 47.128906 C 85.996094 47.128906 86.574219 46.550781 86.574219 45.839844 L 86.574219 41.6875 C 86.574219 40.511719 86.085938 39.390625 85.222656 38.59375 Z M 85.222656 38.59375 " fill-opacity="1" fill-rule="nonzero"/><path fill="#ffbb02" d="M 85.222656 38.59375 L 51.375 7.1875 L 42.472656 15.449219 C 43.023438 14.941406 43.871094 14.941406 44.421875 15.449219 L 66.945312 36.347656 L 66.945312 36.4375 L 65.796875 36.648438 C 63.757812 37.019531 61.652344 36.824219 59.71875 36.082031 L 47.78125 31.492188 C 45.59375 30.652344 43.125 30.996094 41.25 32.398438 L 30.300781 40.601562 C 30.101562 40.753906 29.988281 40.980469 29.988281 41.230469 C 29.988281 41.484375 30.101562 41.710938 30.300781 41.863281 C 32.328125 43.386719 35.164062 43.386719 37.195312 41.867188 L 41.671875 38.511719 C 43.878906 36.859375 46.957031 36.863281 49.160156 38.519531 L 65.070312 50.476562 C 66.03125 51.199219 66.722656 52.234375 66.945312 53.410156 L 66.945312 69.933594 C 66.945312 71.546875 65.636719 72.855469 64.019531 72.855469 L 46.835938 72.855469 L 38.4375 80.644531 L 67.605469 80.644531 C 71.769531 80.644531 75.144531 77.273438 75.144531 73.113281 L 75.144531 47.128906 L 85.285156 47.128906 C 85.996094 47.128906 86.574219 46.550781 86.574219 45.839844 L 86.574219 41.6875 C 86.574219 40.511719 86.085938 39.390625 85.222656 38.59375 Z M 85.222656 38.59375 " fill-opacity="1" fill-rule="nonzero"/></g><path fill="#ff914d" d="M 44.515625 13.554688 L 42.472656 15.449219 C 43.023438 14.941406 43.871094 14.941406 44.421875 15.449219 L 46.335938 17.226562 L 54.261719 9.867188 L 51.375 7.1875 Z M 44.515625 13.554688 " fill-opacity="1" fill-rule="nonzero"/><g fill="#299640" fill-opacity="1"><g transform="translate(102.336382, 41.208943)"><g><path d="M 22.046875 0 L 15.84375 0 L 15.84375 -9.3125 L 8.671875 -9.3125 L 8.671875 0 L 2.46875 0 L 2.46875 -22.84375 L 8.671875 -22.84375 L 8.671875 -14.375 L 15.84375 -14.375 L 15.84375 -22.84375 L 22.046875 -22.84375 Z M 22.046875 0 "/></g></g></g><g fill="#299640" fill-opacity="1"><g transform="translate(126.846021, 41.208943)"><g><path d="M 19.015625 -8.890625 C 19.015625 -5.992188 18.234375 -3.734375 16.671875 -2.109375 C 15.117188 -0.492188 12.941406 0.3125 10.140625 0.3125 C 7.453125 0.3125 5.3125 -0.515625 3.71875 -2.171875 C 2.132812 -3.828125 1.34375 -6.066406 1.34375 -8.890625 C 1.34375 -11.773438 2.117188 -14.015625 3.671875 -15.609375 C 5.234375 -17.210938 7.421875 -18.015625 10.234375 -18.015625 C 11.972656 -18.015625 13.507812 -17.644531 14.84375 -16.90625 C 16.175781 -16.164062 17.203125 -15.101562 17.921875 -13.71875 C 18.648438 -12.34375 19.015625 -10.734375 19.015625 -8.890625 Z M 7.546875 -8.890625 C 7.546875 -7.367188 7.75 -6.207031 8.15625 -5.40625 C 8.5625 -4.613281 9.242188 -4.21875 10.203125 -4.21875 C 11.148438 -4.21875 11.816406 -4.613281 12.203125 -5.40625 C 12.597656 -6.207031 12.796875 -7.367188 12.796875 -8.890625 C 12.796875 -10.398438 12.597656 -11.539062 12.203125 -12.3125 C 11.804688 -13.082031 11.128906 -13.46875 10.171875 -13.46875 C 9.234375 -13.46875 8.5625 -13.082031 8.15625 -12.3125 C 7.75 -11.550781 7.546875 -10.410156 7.546875 -8.890625 Z M 7.546875 -8.890625 "/></g></g></g><g fill="#299640" fill-opacity="1"><g transform="translate(147.231667, 41.208943)"><g><path d="M 23.84375 0 L 23.84375 -9.625 C 23.84375 -10.820312 23.675781 -11.71875 23.34375 -12.3125 C 23.019531 -12.914062 22.503906 -13.21875 21.796875 -13.21875 C 20.859375 -13.21875 20.171875 -12.816406 19.734375 -12.015625 C 19.296875 -11.210938 19.078125 -9.957031 19.078125 -8.25 L 19.078125 0 L 12.953125 0 L 12.953125 -9.625 C 12.953125 -10.820312 12.796875 -11.71875 12.484375 -12.3125 C 12.171875 -12.914062 11.664062 -13.21875 10.96875 -13.21875 C 10.007812 -13.21875 9.3125 -12.789062 8.875 -11.9375 C 8.4375 -11.082031 8.21875 -9.6875 8.21875 -7.75 L 8.21875 0 L 2.109375 0 L 2.109375 -17.703125 L 6.71875 -17.703125 L 7.484375 -15.515625 L 7.84375 -15.515625 C 8.3125 -16.328125 8.988281 -16.945312 9.875 -17.375 C 10.769531 -17.800781 11.785156 -18.015625 12.921875 -18.015625 C 15.472656 -18.015625 17.265625 -17.238281 18.296875 -15.6875 L 18.78125 -15.6875 C 19.28125 -16.414062 19.972656 -16.984375 20.859375 -17.390625 C 21.753906 -17.804688 22.738281 -18.015625 23.8125 -18.015625 C 25.90625 -18.015625 27.453125 -17.476562 28.453125 -16.40625 C 29.453125 -15.332031 29.953125 -13.703125 29.953125 -11.515625 L 29.953125 0 Z M 23.84375 0 "/></g></g></g><g fill="#299640" fill-opacity="1"><g transform="translate(179.223853, 41.208943)"><g><path d="M 10.65625 0.3125 C 7.707031 0.3125 5.414062 -0.46875 3.78125 -2.03125 C 2.15625 -3.601562 1.34375 -5.835938 1.34375 -8.734375 C 1.34375 -11.722656 2.097656 -14.015625 3.609375 -15.609375 C 5.117188 -17.210938 7.273438 -18.015625 10.078125 -18.015625 C 12.742188 -18.015625 14.800781 -17.316406 16.25 -15.921875 C 17.707031 -14.535156 18.4375 -12.535156 18.4375 -9.921875 L 18.4375 -7.203125 L 7.515625 -7.203125 C 7.554688 -6.210938 7.914062 -5.4375 8.59375 -4.875 C 9.28125 -4.3125 10.210938 -4.03125 11.390625 -4.03125 C 12.460938 -4.03125 13.445312 -4.128906 14.34375 -4.328125 C 15.25 -4.535156 16.226562 -4.882812 17.28125 -5.375 L 17.28125 -0.984375 C 16.320312 -0.492188 15.332031 -0.15625 14.3125 0.03125 C 13.289062 0.21875 12.070312 0.3125 10.65625 0.3125 Z M 10.296875 -13.859375 C 9.578125 -13.859375 8.972656 -13.628906 8.484375 -13.171875 C 8.003906 -12.722656 7.722656 -12.015625 7.640625 -11.046875 L 12.890625 -11.046875 C 12.867188 -11.898438 12.625 -12.582031 12.15625 -13.09375 C 11.695312 -13.601562 11.078125 -13.859375 10.296875 -13.859375 Z M 10.296875 -13.859375 "/></g></g></g><g fill="#299640" fill-opacity="1"><g transform="translate(207.310743, 41.208943)"><g><path d="M 12.421875 0 L 7.75 -16.453125 L 7.609375 -16.453125 C 7.828125 -13.648438 7.9375 -11.472656 7.9375 -9.921875 L 7.9375 0 L 2.46875 0 L 2.46875 -22.84375 L 10.6875 -22.84375 L 15.453125 -6.625 L 15.578125 -6.625 L 20.25 -22.84375 L 28.484375 -22.84375 L 28.484375 0 L 22.8125 0 L 22.8125 -10.015625 C 22.8125 -10.535156 22.816406 -11.113281 22.828125 -11.75 C 22.847656 -12.382812 22.921875 -13.941406 23.046875 -16.421875 L 22.90625 -16.421875 L 18.296875 0 Z M 12.421875 0 "/></g></g></g><g fill="#299640" fill-opacity="1"><g transform="translate(238.240689, 41.208943)"><g><path d="M 13.65625 0 L 12.484375 -2.34375 L 12.359375 -2.34375 C 11.535156 -1.320312 10.695312 -0.625 9.84375 -0.25 C 8.988281 0.125 7.882812 0.3125 6.53125 0.3125 C 4.863281 0.3125 3.550781 -0.1875 2.59375 -1.1875 C 1.632812 -2.1875 1.15625 -3.59375 1.15625 -5.40625 C 1.15625 -7.289062 1.8125 -8.691406 3.125 -9.609375 C 4.4375 -10.535156 6.335938 -11.054688 8.828125 -11.171875 L 11.78125 -11.265625 L 11.78125 -11.515625 C 11.78125 -12.972656 11.0625 -13.703125 9.625 -13.703125 C 8.332031 -13.703125 6.691406 -13.265625 4.703125 -12.390625 L 2.9375 -16.421875 C 5 -17.484375 7.601562 -18.015625 10.75 -18.015625 C 13.019531 -18.015625 14.773438 -17.453125 16.015625 -16.328125 C 17.265625 -15.203125 17.890625 -13.628906 17.890625 -11.609375 L 17.890625 0 Z M 9.125 -4 C 9.863281 -4 10.492188 -4.234375 11.015625 -4.703125 C 11.546875 -5.171875 11.8125 -5.78125 11.8125 -6.53125 L 11.8125 -7.90625 L 10.40625 -7.84375 C 8.394531 -7.769531 7.390625 -7.03125 7.390625 -5.625 C 7.390625 -4.539062 7.96875 -4 9.125 -4 Z M 9.125 -4 "/></g></g></g><g fill="#299640" fill-opacity="1"><g transform="translate(258.17332, 41.208943)"><g><path d="M 10.78125 -4.515625 C 11.601562 -4.515625 12.585938 -4.71875 13.734375 -5.125 L 13.734375 -0.671875 C 12.910156 -0.316406 12.125 -0.0664062 11.375 0.078125 C 10.632812 0.234375 9.765625 0.3125 8.765625 0.3125 C 6.710938 0.3125 5.234375 -0.1875 4.328125 -1.1875 C 3.421875 -2.195312 2.96875 -3.742188 2.96875 -5.828125 L 2.96875 -13.125 L 0.828125 -13.125 L 0.828125 -15.609375 L 3.546875 -17.53125 L 5.125 -21.25 L 9.125 -21.25 L 9.125 -17.703125 L 13.46875 -17.703125 L 13.46875 -13.125 L 9.125 -13.125 L 9.125 -6.234375 C 9.125 -5.085938 9.675781 -4.515625 10.78125 -4.515625 Z M 10.78125 -4.515625 "/></g></g></g><g fill="#299640" fill-opacity="1"><g transform="translate(272.888476, 41.208943)"><g><path d="M 10.65625 0.3125 C 7.707031 0.3125 5.414062 -0.46875 3.78125 -2.03125 C 2.15625 -3.601562 1.34375 -5.835938 1.34375 -8.734375 C 1.34375 -11.722656 2.097656 -14.015625 3.609375 -15.609375 C 5.117188 -17.210938 7.273438 -18.015625 10.078125 -18.015625 C 12.742188 -18.015625 14.800781 -17.316406 16.25 -15.921875 C 17.707031 -14.535156 18.4375 -12.535156 18.4375 -9.921875 L 18.4375 -7.203125 L 7.515625 -7.203125 C 7.554688 -6.210938 7.914062 -5.4375 8.59375 -4.875 C 9.28125 -4.3125 10.210938 -4.03125 11.390625 -4.03125 C 12.460938 -4.03125 13.445312 -4.128906 14.34375 -4.328125 C 15.25 -4.535156 16.226562 -4.882812 17.28125 -5.375 L 17.28125 -0.984375 C 16.320312 -0.492188 15.332031 -0.15625 14.3125 0.03125 C 13.289062 0.21875 12.070312 0.3125 10.65625 0.3125 Z M 10.296875 -13.859375 C 9.578125 -13.859375 8.972656 -13.628906 8.484375 -13.171875 C 8.003906 -12.722656 7.722656 -12.015625 7.640625 -11.046875 L 12.890625 -11.046875 C 12.867188 -11.898438 12.625 -12.582031 12.15625 -13.09375 C 11.695312 -13.601562 11.078125 -13.859375 10.296875 -13.859375 Z M 10.296875 -13.859375 "/></g></g></g><g fill="#299640" fill-opacity="1"><g transform="translate(292.664896, 41.208943)"><g><path d="M 15.78125 -5.4375 C 15.78125 -3.539062 15.132812 -2.109375 13.84375 -1.140625 C 12.550781 -0.171875 10.695312 0.3125 8.28125 0.3125 C 6.96875 0.3125 5.828125 0.238281 4.859375 0.09375 C 3.890625 -0.0390625 2.898438 -0.296875 1.890625 -0.671875 L 1.890625 -5.5625 C 2.835938 -5.144531 3.875 -4.800781 5 -4.53125 C 6.132812 -4.257812 7.144531 -4.125 8.03125 -4.125 C 9.351562 -4.125 10.015625 -4.425781 10.015625 -5.03125 C 10.015625 -5.34375 9.828125 -5.617188 9.453125 -5.859375 C 9.085938 -6.109375 8.015625 -6.585938 6.234375 -7.296875 C 4.609375 -7.960938 3.472656 -8.71875 2.828125 -9.5625 C 2.179688 -10.414062 1.859375 -11.492188 1.859375 -12.796875 C 1.859375 -14.441406 2.492188 -15.722656 3.765625 -16.640625 C 5.035156 -17.554688 6.832031 -18.015625 9.15625 -18.015625 C 10.320312 -18.015625 11.414062 -17.882812 12.4375 -17.625 C 13.46875 -17.375 14.535156 -17.003906 15.640625 -16.515625 L 13.984375 -12.578125 C 13.171875 -12.941406 12.3125 -13.25 11.40625 -13.5 C 10.5 -13.757812 9.757812 -13.890625 9.1875 -13.890625 C 8.1875 -13.890625 7.6875 -13.644531 7.6875 -13.15625 C 7.6875 -12.851562 7.859375 -12.59375 8.203125 -12.375 C 8.554688 -12.164062 9.566406 -11.734375 11.234375 -11.078125 C 12.472656 -10.566406 13.394531 -10.066406 14 -9.578125 C 14.613281 -9.085938 15.0625 -8.507812 15.34375 -7.84375 C 15.632812 -7.1875 15.78125 -6.382812 15.78125 -5.4375 Z M 15.78125 -5.4375 "/></g></g></g><g fill="#299640" fill-opacity="1"><g transform="translate(102.336382, 65.658929)"><g><path d="M 10.015625 -3.796875 C 10.015625 -2.546875 9.554688 -1.566406 8.640625 -0.859375 C 7.734375 -0.148438 6.5 0.203125 4.9375 0.203125 C 3.25 0.203125 1.945312 -0.015625 1.03125 -0.453125 L 1.03125 -2.0625 C 1.625 -1.8125 2.265625 -1.613281 2.953125 -1.46875 C 3.640625 -1.332031 4.320312 -1.265625 5 -1.265625 C 6.101562 -1.265625 6.9375 -1.472656 7.5 -1.890625 C 8.0625 -2.304688 8.34375 -2.890625 8.34375 -3.640625 C 8.34375 -4.140625 8.242188 -4.546875 8.046875 -4.859375 C 7.847656 -5.171875 7.515625 -5.460938 7.046875 -5.734375 C 6.578125 -6.003906 5.867188 -6.304688 4.921875 -6.640625 C 3.597656 -7.117188 2.648438 -7.679688 2.078125 -8.328125 C 1.503906 -8.984375 1.21875 -9.832031 1.21875 -10.875 C 1.21875 -11.976562 1.628906 -12.851562 2.453125 -13.5 C 3.285156 -14.15625 4.382812 -14.484375 5.75 -14.484375 C 7.164062 -14.484375 8.46875 -14.222656 9.65625 -13.703125 L 9.140625 -12.25 C 7.960938 -12.75 6.816406 -13 5.703125 -13 C 4.828125 -13 4.140625 -12.804688 3.640625 -12.421875 C 3.148438 -12.046875 2.90625 -11.523438 2.90625 -10.859375 C 2.90625 -10.367188 2.992188 -9.960938 3.171875 -9.640625 C 3.359375 -9.328125 3.664062 -9.035156 4.09375 -8.765625 C 4.53125 -8.503906 5.191406 -8.21875 6.078125 -7.90625 C 7.578125 -7.363281 8.609375 -6.785156 9.171875 -6.171875 C 9.734375 -5.566406 10.015625 -4.773438 10.015625 -3.796875 Z M 10.015625 -3.796875 "/></g></g></g><g fill="#299640" fill-opacity="1"><g transform="translate(113.308656, 65.658929)"><g><path d="M 3.34375 0 L 1.71875 0 L 1.71875 -10.703125 L 3.34375 -10.703125 Z M 1.578125 -13.609375 C 1.578125 -13.972656 1.664062 -14.238281 1.84375 -14.40625 C 2.03125 -14.582031 2.265625 -14.671875 2.546875 -14.671875 C 2.804688 -14.671875 3.03125 -14.582031 3.21875 -14.40625 C 3.40625 -14.238281 3.5 -13.972656 3.5 -13.609375 C 3.5 -13.242188 3.40625 -12.96875 3.21875 -12.78125 C 3.03125 -12.601562 2.804688 -12.515625 2.546875 -12.515625 C 2.265625 -12.515625 2.03125 -12.601562 1.84375 -12.78125 C 1.664062 -12.96875 1.578125 -13.242188 1.578125 -13.609375 Z M 1.578125 -13.609375 "/></g></g></g><g fill="#299640" fill-opacity="1"><g transform="translate(118.365274, 65.658929)"><g><path d="M 15.359375 0 L 15.359375 -6.96875 C 15.359375 -7.820312 15.175781 -8.457031 14.8125 -8.875 C 14.445312 -9.300781 13.878906 -9.515625 13.109375 -9.515625 C 12.109375 -9.515625 11.363281 -9.222656 10.875 -8.640625 C 10.394531 -8.066406 10.15625 -7.179688 10.15625 -5.984375 L 10.15625 0 L 8.53125 0 L 8.53125 -6.96875 C 8.53125 -7.820312 8.347656 -8.457031 7.984375 -8.875 C 7.617188 -9.300781 7.050781 -9.515625 6.28125 -9.515625 C 5.257812 -9.515625 4.515625 -9.210938 4.046875 -8.609375 C 3.578125 -8.003906 3.34375 -7.003906 3.34375 -5.609375 L 3.34375 0 L 1.71875 0 L 1.71875 -10.703125 L 3.03125 -10.703125 L 3.296875 -9.234375 L 3.375 -9.234375 C 3.6875 -9.753906 4.117188 -10.160156 4.671875 -10.453125 C 5.234375 -10.753906 5.859375 -10.90625 6.546875 -10.90625 C 8.210938 -10.90625 9.304688 -10.296875 9.828125 -9.078125 L 9.90625 -9.078125 C 10.21875 -9.640625 10.675781 -10.082031 11.28125 -10.40625 C 11.894531 -10.738281 12.585938 -10.90625 13.359375 -10.90625 C 14.566406 -10.90625 15.472656 -10.59375 16.078125 -9.96875 C 16.679688 -9.34375 16.984375 -8.347656 16.984375 -6.984375 L 16.984375 0 Z M 15.359375 0 "/></g></g></g><g fill="#299640" fill-opacity="1"><g transform="translate(136.961522, 65.658929)"><g><path d="M 6.703125 0.203125 C 6.003906 0.203125 5.363281 0.0703125 4.78125 -0.1875 C 4.207031 -0.445312 3.726562 -0.84375 3.34375 -1.375 L 3.21875 -1.375 C 3.300781 -0.75 3.34375 -0.15625 3.34375 0.40625 L 3.34375 4.8125 L 1.71875 4.8125 L 1.71875 -10.703125 L 3.03125 -10.703125 L 3.265625 -9.234375 L 3.34375 -9.234375 C 3.757812 -9.828125 4.242188 -10.253906 4.796875 -10.515625 C 5.347656 -10.773438 5.984375 -10.90625 6.703125 -10.90625 C 8.117188 -10.90625 9.210938 -10.414062 9.984375 -9.4375 C 10.753906 -8.46875 11.140625 -7.109375 11.140625 -5.359375 C 11.140625 -3.597656 10.75 -2.226562 9.96875 -1.25 C 9.1875 -0.28125 8.097656 0.203125 6.703125 0.203125 Z M 6.46875 -9.515625 C 5.375 -9.515625 4.582031 -9.210938 4.09375 -8.609375 C 3.601562 -8.003906 3.351562 -7.039062 3.34375 -5.71875 L 3.34375 -5.359375 C 3.34375 -3.859375 3.59375 -2.78125 4.09375 -2.125 C 4.59375 -1.476562 5.394531 -1.15625 6.5 -1.15625 C 7.425781 -1.15625 8.148438 -1.53125 8.671875 -2.28125 C 9.203125 -3.03125 9.46875 -4.0625 9.46875 -5.375 C 9.46875 -6.71875 9.203125 -7.742188 8.671875 -8.453125 C 8.148438 -9.160156 7.414062 -9.515625 6.46875 -9.515625 Z M 6.46875 -9.515625 "/></g></g></g><g fill="#299640" fill-opacity="1"><g transform="translate(149.212593, 65.658929)"><g><path d="M 3.34375 0 L 1.71875 0 L 1.71875 -15.203125 L 3.34375 -15.203125 Z M 3.34375 0 "/></g></g></g><g fill="#299640" fill-opacity="1"><g transform="translate(154.269211, 65.658929)"><g><path d="M 3.34375 0 L 1.71875 0 L 1.71875 -10.703125 L 3.34375 -10.703125 Z M 1.578125 -13.609375 C 1.578125 -13.972656 1.664062 -14.238281 1.84375 -14.40625 C 2.03125 -14.582031 2.265625 -14.671875 2.546875 -14.671875 C 2.804688 -14.671875 3.03125 -14.582031 3.21875 -14.40625 C 3.40625 -14.238281 3.5 -13.972656 3.5 -13.609375 C 3.5 -13.242188 3.40625 -12.96875 3.21875 -12.78125 C 3.03125 -12.601562 2.804688 -12.515625 2.546875 -12.515625 C 2.265625 -12.515625 2.03125 -12.601562 1.84375 -12.78125 C 1.664062 -12.96875 1.578125 -13.242188 1.578125 -13.609375 Z M 1.578125 -13.609375 "/></g></g></g><g fill="#299640" fill-opacity="1"><g transform="translate(159.325828, 65.658929)"><g><path d="M 6.546875 -9.4375 L 3.8125 -9.4375 L 3.8125 0 L 2.203125 0 L 2.203125 -9.4375 L 0.28125 -9.4375 L 0.28125 -10.171875 L 2.203125 -10.765625 L 2.203125 -11.359375 C 2.203125 -13.984375 3.347656 -15.296875 5.640625 -15.296875 C 6.210938 -15.296875 6.878906 -15.1875 7.640625 -14.96875 L 7.21875 -13.65625 C 6.59375 -13.863281 6.054688 -13.96875 5.609375 -13.96875 C 5.003906 -13.96875 4.550781 -13.765625 4.25 -13.359375 C 3.957031 -12.953125 3.8125 -12.296875 3.8125 -11.390625 L 3.8125 -10.703125 L 6.546875 -10.703125 Z M 6.546875 -9.4375 "/></g></g></g><g fill="#299640" fill-opacity="1"><g transform="translate(166.100524, 65.658929)"><g><path d="M 0.015625 -10.703125 L 1.765625 -10.703125 L 4.109375 -4.59375 C 4.617188 -3.207031 4.9375 -2.203125 5.0625 -1.578125 L 5.140625 -1.578125 C 5.222656 -1.910156 5.398438 -2.476562 5.671875 -3.28125 C 5.941406 -4.09375 6.828125 -6.566406 8.328125 -10.703125 L 10.0625 -10.703125 L 5.453125 1.484375 C 5.003906 2.691406 4.472656 3.546875 3.859375 4.046875 C 3.253906 4.554688 2.507812 4.8125 1.625 4.8125 C 1.125 4.8125 0.632812 4.753906 0.15625 4.640625 L 0.15625 3.34375 C 0.507812 3.414062 0.910156 3.453125 1.359375 3.453125 C 2.472656 3.453125 3.265625 2.828125 3.734375 1.578125 L 4.34375 0.0625 Z M 0.015625 -10.703125 "/></g></g></g><g fill="#299640" fill-opacity="1"><g transform="translate(176.174712, 65.658929)"><g><path d="M 3.34375 0 L 1.71875 0 L 1.71875 -10.703125 L 3.34375 -10.703125 Z M 1.578125 -13.609375 C 1.578125 -13.972656 1.664062 -14.238281 1.84375 -14.40625 C 2.03125 -14.582031 2.265625 -14.671875 2.546875 -14.671875 C 2.804688 -14.671875 3.03125 -14.582031 3.21875 -14.40625 C 3.40625 -14.238281 3.5 -13.972656 3.5 -13.609375 C 3.5 -13.242188 3.40625 -12.96875 3.21875 -12.78125 C 3.03125 -12.601562 2.804688 -12.515625 2.546875 -12.515625 C 2.265625 -12.515625 2.03125 -12.601562 1.84375 -12.78125 C 1.664062 -12.96875 1.578125 -13.242188 1.578125 -13.609375 Z M 1.578125 -13.609375 "/></g></g></g><g fill="#299640" fill-opacity="1"><g transform="translate(181.23133, 65.658929)"><g><path d="M 9.046875 0 L 9.046875 -6.921875 C 9.046875 -7.796875 8.847656 -8.445312 8.453125 -8.875 C 8.054688 -9.300781 7.429688 -9.515625 6.578125 -9.515625 C 5.460938 -9.515625 4.644531 -9.210938 4.125 -8.609375 C 3.601562 -8.003906 3.34375 -7.003906 3.34375 -5.609375 L 3.34375 0 L 1.71875 0 L 1.71875 -10.703125 L 3.03125 -10.703125 L 3.296875 -9.234375 L 3.375 -9.234375 C 3.707031 -9.765625 4.171875 -10.175781 4.765625 -10.46875 C 5.367188 -10.757812 6.039062 -10.90625 6.78125 -10.90625 C 8.070312 -10.90625 9.039062 -10.59375 9.6875 -9.96875 C 10.34375 -9.34375 10.671875 -8.347656 10.671875 -6.984375 L 10.671875 0 Z M 9.046875 0 "/></g></g></g><g fill="#299640" fill-opacity="1"><g transform="translate(193.501925, 65.658929)"><g><path d="M 10.484375 -10.703125 L 10.484375 -9.671875 L 8.5 -9.4375 C 8.675781 -9.21875 8.835938 -8.921875 8.984375 -8.546875 C 9.128906 -8.179688 9.203125 -7.769531 9.203125 -7.3125 C 9.203125 -6.257812 8.84375 -5.421875 8.125 -4.796875 C 7.40625 -4.171875 6.421875 -3.859375 5.171875 -3.859375 C 4.859375 -3.859375 4.5625 -3.882812 4.28125 -3.9375 C 3.59375 -3.570312 3.25 -3.113281 3.25 -2.5625 C 3.25 -2.269531 3.367188 -2.050781 3.609375 -1.90625 C 3.847656 -1.769531 4.257812 -1.703125 4.84375 -1.703125 L 6.734375 -1.703125 C 7.898438 -1.703125 8.789062 -1.457031 9.40625 -0.96875 C 10.03125 -0.476562 10.34375 0.226562 10.34375 1.15625 C 10.34375 2.34375 9.863281 3.25 8.90625 3.875 C 7.957031 4.5 6.570312 4.8125 4.75 4.8125 C 3.351562 4.8125 2.273438 4.550781 1.515625 4.03125 C 0.753906 3.507812 0.375 2.769531 0.375 1.8125 C 0.375 1.164062 0.582031 0.601562 1 0.125 C 1.414062 -0.351562 2.003906 -0.675781 2.765625 -0.84375 C 2.492188 -0.96875 2.265625 -1.160156 2.078125 -1.421875 C 1.890625 -1.679688 1.796875 -1.984375 1.796875 -2.328125 C 1.796875 -2.710938 1.898438 -3.050781 2.109375 -3.34375 C 2.316406 -3.644531 2.644531 -3.929688 3.09375 -4.203125 C 2.539062 -4.429688 2.085938 -4.816406 1.734375 -5.359375 C 1.390625 -5.910156 1.21875 -6.535156 1.21875 -7.234375 C 1.21875 -8.410156 1.566406 -9.316406 2.265625 -9.953125 C 2.972656 -10.585938 3.972656 -10.90625 5.265625 -10.90625 C 5.828125 -10.90625 6.332031 -10.835938 6.78125 -10.703125 Z M 1.9375 1.796875 C 1.9375 2.378906 2.179688 2.816406 2.671875 3.109375 C 3.160156 3.410156 3.863281 3.5625 4.78125 3.5625 C 6.132812 3.5625 7.140625 3.359375 7.796875 2.953125 C 8.453125 2.546875 8.78125 1.992188 8.78125 1.296875 C 8.78125 0.722656 8.597656 0.320312 8.234375 0.09375 C 7.878906 -0.132812 7.207031 -0.25 6.21875 -0.25 L 4.28125 -0.25 C 3.539062 -0.25 2.960938 -0.0703125 2.546875 0.28125 C 2.140625 0.632812 1.9375 1.140625 1.9375 1.796875 Z M 2.828125 -7.28125 C 2.828125 -6.53125 3.035156 -5.960938 3.453125 -5.578125 C 3.878906 -5.191406 4.46875 -5 5.21875 -5 C 6.800781 -5 7.59375 -5.769531 7.59375 -7.3125 C 7.59375 -8.914062 6.796875 -9.71875 5.203125 -9.71875 C 4.429688 -9.71875 3.84375 -9.507812 3.4375 -9.09375 C 3.03125 -8.6875 2.828125 -8.082031 2.828125 -7.28125 Z M 2.828125 -7.28125 "/></g></g></g><g fill="#299640" fill-opacity="1"><g transform="translate(204.454675, 65.658929)"><g/></g></g><g fill="#299640" fill-opacity="1"><g transform="translate(209.647958, 65.658929)"><g><path d="M 5.171875 -1.140625 C 5.460938 -1.140625 5.738281 -1.160156 6 -1.203125 C 6.269531 -1.242188 6.484375 -1.289062 6.640625 -1.34375 L 6.640625 -0.09375 C 6.460938 -0.0078125 6.203125 0.0546875 5.859375 0.109375 C 5.523438 0.171875 5.21875 0.203125 4.9375 0.203125 C 2.875 0.203125 1.84375 -0.890625 1.84375 -3.078125 L 1.84375 -9.4375 L 0.296875 -9.4375 L 0.296875 -10.21875 L 1.84375 -10.90625 L 2.515625 -13.1875 L 3.453125 -13.1875 L 3.453125 -10.703125 L 6.5625 -10.703125 L 6.5625 -9.4375 L 3.453125 -9.4375 L 3.453125 -3.140625 C 3.453125 -2.492188 3.601562 -2 3.90625 -1.65625 C 4.21875 -1.3125 4.640625 -1.140625 5.171875 -1.140625 Z M 5.171875 -1.140625 "/></g></g></g><g fill="#299640" fill-opacity="1"><g transform="translate(216.705747, 65.658929)"><g><path d="M 9.046875 0 L 9.046875 -6.921875 C 9.046875 -7.796875 8.847656 -8.445312 8.453125 -8.875 C 8.054688 -9.300781 7.429688 -9.515625 6.578125 -9.515625 C 5.453125 -9.515625 4.628906 -9.207031 4.109375 -8.59375 C 3.597656 -7.988281 3.34375 -6.988281 3.34375 -5.59375 L 3.34375 0 L 1.71875 0 L 1.71875 -15.203125 L 3.34375 -15.203125 L 3.34375 -10.59375 C 3.34375 -10.039062 3.316406 -9.582031 3.265625 -9.21875 L 3.359375 -9.21875 C 3.679688 -9.726562 4.132812 -10.128906 4.71875 -10.421875 C 5.3125 -10.722656 5.984375 -10.875 6.734375 -10.875 C 8.046875 -10.875 9.03125 -10.5625 9.6875 -9.9375 C 10.34375 -9.320312 10.671875 -8.335938 10.671875 -6.984375 L 10.671875 0 Z M 9.046875 0 "/></g></g></g><g fill="#299640" fill-opacity="1"><g transform="translate(228.976342, 65.658929)"><g><path d="M 6.234375 0.203125 C 4.660156 0.203125 3.414062 -0.28125 2.5 -1.25 C 1.582031 -2.21875 1.125 -3.554688 1.125 -5.265625 C 1.125 -6.992188 1.546875 -8.363281 2.390625 -9.375 C 3.242188 -10.394531 4.390625 -10.90625 5.828125 -10.90625 C 7.160156 -10.90625 8.21875 -10.460938 9 -9.578125 C 9.78125 -8.691406 10.171875 -7.523438 10.171875 -6.078125 L 10.171875 -5.0625 L 2.796875 -5.0625 C 2.835938 -3.800781 3.15625 -2.84375 3.75 -2.1875 C 4.351562 -1.539062 5.203125 -1.21875 6.296875 -1.21875 C 7.453125 -1.21875 8.59375 -1.457031 9.71875 -1.9375 L 9.71875 -0.5 C 9.144531 -0.25 8.601562 -0.0703125 8.09375 0.03125 C 7.582031 0.144531 6.960938 0.203125 6.234375 0.203125 Z M 5.796875 -9.546875 C 4.941406 -9.546875 4.257812 -9.265625 3.75 -8.703125 C 3.238281 -8.140625 2.9375 -7.363281 2.84375 -6.375 L 8.4375 -6.375 C 8.4375 -7.394531 8.207031 -8.175781 7.75 -8.71875 C 7.300781 -9.269531 6.648438 -9.546875 5.796875 -9.546875 Z M 5.796875 -9.546875 "/></g></g></g><g fill="#299640" fill-opacity="1"><g transform="translate(240.192662, 65.658929)"><g/></g></g><g fill="#299640" fill-opacity="1"><g transform="translate(245.385944, 65.658929)"><g><path d="M 6 0.203125 C 4.445312 0.203125 3.242188 -0.273438 2.390625 -1.234375 C 1.546875 -2.191406 1.125 -3.539062 1.125 -5.28125 C 1.125 -7.070312 1.554688 -8.457031 2.421875 -9.4375 C 3.285156 -10.414062 4.515625 -10.90625 6.109375 -10.90625 C 6.617188 -10.90625 7.128906 -10.847656 7.640625 -10.734375 C 8.160156 -10.617188 8.566406 -10.488281 8.859375 -10.34375 L 8.359375 -8.96875 C 8.003906 -9.113281 7.613281 -9.234375 7.1875 -9.328125 C 6.757812 -9.421875 6.382812 -9.46875 6.0625 -9.46875 C 3.882812 -9.46875 2.796875 -8.078125 2.796875 -5.296875 C 2.796875 -3.984375 3.0625 -2.972656 3.59375 -2.265625 C 4.125 -1.566406 4.910156 -1.21875 5.953125 -1.21875 C 6.847656 -1.21875 7.765625 -1.410156 8.703125 -1.796875 L 8.703125 -0.359375 C 7.984375 0.015625 7.082031 0.203125 6 0.203125 Z M 6 0.203125 "/></g></g></g><g fill="#299640" fill-opacity="1"><g transform="translate(254.903709, 65.658929)"><g><path d="M 10.953125 -5.359375 C 10.953125 -3.617188 10.515625 -2.253906 9.640625 -1.265625 C 8.765625 -0.285156 7.550781 0.203125 6 0.203125 C 5.039062 0.203125 4.1875 -0.0195312 3.4375 -0.46875 C 2.695312 -0.925781 2.125 -1.570312 1.71875 -2.40625 C 1.320312 -3.25 1.125 -4.234375 1.125 -5.359375 C 1.125 -7.109375 1.554688 -8.46875 2.421875 -9.4375 C 3.296875 -10.414062 4.507812 -10.90625 6.0625 -10.90625 C 7.5625 -10.90625 8.75 -10.40625 9.625 -9.40625 C 10.507812 -8.40625 10.953125 -7.054688 10.953125 -5.359375 Z M 2.796875 -5.359375 C 2.796875 -3.992188 3.066406 -2.953125 3.609375 -2.234375 C 4.160156 -1.515625 4.96875 -1.15625 6.03125 -1.15625 C 7.09375 -1.15625 7.898438 -1.507812 8.453125 -2.21875 C 9.003906 -2.9375 9.28125 -3.984375 9.28125 -5.359375 C 9.28125 -6.722656 9.003906 -7.753906 8.453125 -8.453125 C 7.898438 -9.160156 7.085938 -9.515625 6.015625 -9.515625 C 4.953125 -9.515625 4.148438 -9.164062 3.609375 -8.46875 C 3.066406 -7.78125 2.796875 -6.742188 2.796875 -5.359375 Z M 2.796875 -5.359375 "/></g></g></g><g fill="#299640" fill-opacity="1"><g transform="translate(266.979068, 65.658929)"><g><path d="M 9.046875 0 L 9.046875 -6.921875 C 9.046875 -7.796875 8.847656 -8.445312 8.453125 -8.875 C 8.054688 -9.300781 7.429688 -9.515625 6.578125 -9.515625 C 5.453125 -9.515625 4.628906 -9.207031 4.109375 -8.59375 C 3.597656 -7.988281 3.34375 -6.988281 3.34375 -5.59375 L 3.34375 0 L 1.71875 0 L 1.71875 -15.203125 L 3.34375 -15.203125 L 3.34375 -10.59375 C 3.34375 -10.039062 3.316406 -9.582031 3.265625 -9.21875 L 3.359375 -9.21875 C 3.679688 -9.726562 4.132812 -10.128906 4.71875 -10.421875 C 5.3125 -10.722656 5.984375 -10.875 6.734375 -10.875 C 8.046875 -10.875 9.03125 -10.5625 9.6875 -9.9375 C 10.34375 -9.320312 10.671875 -8.335938 10.671875 -6.984375 L 10.671875 0 Z M 9.046875 0 "/></g></g></g><g fill="#299640" fill-opacity="1"><g transform="translate(279.249663, 65.658929)"><g><path d="M 8.296875 0 L 7.984375 -1.53125 L 7.90625 -1.53125 C 7.363281 -0.851562 6.828125 -0.394531 6.296875 -0.15625 C 5.773438 0.0820312 5.113281 0.203125 4.3125 0.203125 C 3.25 0.203125 2.414062 -0.0703125 1.8125 -0.625 C 1.21875 -1.175781 0.921875 -1.953125 0.921875 -2.953125 C 0.921875 -5.117188 2.648438 -6.253906 6.109375 -6.359375 L 7.921875 -6.421875 L 7.921875 -7.078125 C 7.921875 -7.921875 7.738281 -8.539062 7.375 -8.9375 C 7.019531 -9.34375 6.441406 -9.546875 5.640625 -9.546875 C 4.753906 -9.546875 3.75 -9.269531 2.625 -8.71875 L 2.125 -9.96875 C 2.644531 -10.25 3.21875 -10.46875 3.84375 -10.625 C 4.476562 -10.789062 5.113281 -10.875 5.75 -10.875 C 7.019531 -10.875 7.960938 -10.59375 8.578125 -10.03125 C 9.191406 -9.46875 9.5 -8.5625 9.5 -7.3125 L 9.5 0 Z M 4.640625 -1.140625 C 5.648438 -1.140625 6.441406 -1.414062 7.015625 -1.96875 C 7.585938 -2.519531 7.875 -3.296875 7.875 -4.296875 L 7.875 -5.265625 L 6.265625 -5.203125 C 4.972656 -5.148438 4.039062 -4.945312 3.46875 -4.59375 C 2.90625 -4.238281 2.625 -3.6875 2.625 -2.9375 C 2.625 -2.351562 2.800781 -1.90625 3.15625 -1.59375 C 3.507812 -1.289062 4.003906 -1.140625 4.640625 -1.140625 Z M 4.640625 -1.140625 "/></g></g></g><g fill="#299640" fill-opacity="1"><g transform="translate(290.368365, 65.658929)"><g><path d="M 6.703125 -10.875 C 8.109375 -10.875 9.195312 -10.394531 9.96875 -9.4375 C 10.75 -8.476562 11.140625 -7.117188 11.140625 -5.359375 C 11.140625 -3.597656 10.75 -2.226562 9.96875 -1.25 C 9.1875 -0.28125 8.097656 0.203125 6.703125 0.203125 C 6.003906 0.203125 5.363281 0.0703125 4.78125 -0.1875 C 4.207031 -0.445312 3.726562 -0.84375 3.34375 -1.375 L 3.21875 -1.375 L 2.875 0 L 1.71875 0 L 1.71875 -15.203125 L 3.34375 -15.203125 L 3.34375 -11.5 C 3.34375 -10.675781 3.316406 -9.9375 3.265625 -9.28125 L 3.34375 -9.28125 C 4.09375 -10.34375 5.210938 -10.875 6.703125 -10.875 Z M 6.46875 -9.515625 C 5.363281 -9.515625 4.566406 -9.195312 4.078125 -8.5625 C 3.585938 -7.9375 3.34375 -6.867188 3.34375 -5.359375 C 3.34375 -3.859375 3.59375 -2.78125 4.09375 -2.125 C 4.59375 -1.476562 5.394531 -1.15625 6.5 -1.15625 C 7.5 -1.15625 8.242188 -1.519531 8.734375 -2.25 C 9.222656 -2.976562 9.46875 -4.019531 9.46875 -5.375 C 9.46875 -6.769531 9.222656 -7.804688 8.734375 -8.484375 C 8.242188 -9.171875 7.488281 -9.515625 6.46875 -9.515625 Z M 6.46875 -9.515625 "/></g></g></g><g fill="#299640" fill-opacity="1"><g transform="translate(302.619425, 65.658929)"><g><path d="M 3.34375 0 L 1.71875 0 L 1.71875 -10.703125 L 3.34375 -10.703125 Z M 1.578125 -13.609375 C 1.578125 -13.972656 1.664062 -14.238281 1.84375 -14.40625 C 2.03125 -14.582031 2.265625 -14.671875 2.546875 -14.671875 C 2.804688 -14.671875 3.03125 -14.582031 3.21875 -14.40625 C 3.40625 -14.238281 3.5 -13.972656 3.5 -13.609375 C 3.5 -13.242188 3.40625 -12.96875 3.21875 -12.78125 C 3.03125 -12.601562 2.804688 -12.515625 2.546875 -12.515625 C 2.265625 -12.515625 2.03125 -12.601562 1.84375 -12.78125 C 1.664062 -12.96875 1.578125 -13.242188 1.578125 -13.609375 Z M 1.578125 -13.609375 "/></g></g></g><g fill="#299640" fill-opacity="1"><g transform="translate(307.676042, 65.658929)"><g><path d="M 5.171875 -1.140625 C 5.460938 -1.140625 5.738281 -1.160156 6 -1.203125 C 6.269531 -1.242188 6.484375 -1.289062 6.640625 -1.34375 L 6.640625 -0.09375 C 6.460938 -0.0078125 6.203125 0.0546875 5.859375 0.109375 C 5.523438 0.171875 5.21875 0.203125 4.9375 0.203125 C 2.875 0.203125 1.84375 -0.890625 1.84375 -3.078125 L 1.84375 -9.4375 L 0.296875 -9.4375 L 0.296875 -10.21875 L 1.84375 -10.90625 L 2.515625 -13.1875 L 3.453125 -13.1875 L 3.453125 -10.703125 L 6.5625 -10.703125 L 6.5625 -9.4375 L 3.453125 -9.4375 L 3.453125 -3.140625 C 3.453125 -2.492188 3.601562 -2 3.90625 -1.65625 C 4.21875 -1.3125 4.640625 -1.140625 5.171875 -1.140625 Z M 5.171875 -1.140625 "/></g></g></g><g fill="#299640" fill-opacity="1"><g transform="translate(314.733819, 65.658929)"><g><path d="M 8.296875 0 L 7.984375 -1.53125 L 7.90625 -1.53125 C 7.363281 -0.851562 6.828125 -0.394531 6.296875 -0.15625 C 5.773438 0.0820312 5.113281 0.203125 4.3125 0.203125 C 3.25 0.203125 2.414062 -0.0703125 1.8125 -0.625 C 1.21875 -1.175781 0.921875 -1.953125 0.921875 -2.953125 C 0.921875 -5.117188 2.648438 -6.253906 6.109375 -6.359375 L 7.921875 -6.421875 L 7.921875 -7.078125 C 7.921875 -7.921875 7.738281 -8.539062 7.375 -8.9375 C 7.019531 -9.34375 6.441406 -9.546875 5.640625 -9.546875 C 4.753906 -9.546875 3.75 -9.269531 2.625 -8.71875 L 2.125 -9.96875 C 2.644531 -10.25 3.21875 -10.46875 3.84375 -10.625 C 4.476562 -10.789062 5.113281 -10.875 5.75 -10.875 C 7.019531 -10.875 7.960938 -10.59375 8.578125 -10.03125 C 9.191406 -9.46875 9.5 -8.5625 9.5 -7.3125 L 9.5 0 Z M 4.640625 -1.140625 C 5.648438 -1.140625 6.441406 -1.414062 7.015625 -1.96875 C 7.585938 -2.519531 7.875 -3.296875 7.875 -4.296875 L 7.875 -5.265625 L 6.265625 -5.203125 C 4.972656 -5.148438 4.039062 -4.945312 3.46875 -4.59375 C 2.90625 -4.238281 2.625 -3.6875 2.625 -2.9375 C 2.625 -2.351562 2.800781 -1.90625 3.15625 -1.59375 C 3.507812 -1.289062 4.003906 -1.140625 4.640625 -1.140625 Z M 4.640625 -1.140625 "/></g></g></g><g fill="#299640" fill-opacity="1"><g transform="translate(325.852532, 65.658929)"><g><path d="M 5.171875 -1.140625 C 5.460938 -1.140625 5.738281 -1.160156 6 -1.203125 C 6.269531 -1.242188 6.484375 -1.289062 6.640625 -1.34375 L 6.640625 -0.09375 C 6.460938 -0.0078125 6.203125 0.0546875 5.859375 0.109375 C 5.523438 0.171875 5.21875 0.203125 4.9375 0.203125 C 2.875 0.203125 1.84375 -0.890625 1.84375 -3.078125 L 1.84375 -9.4375 L 0.296875 -9.4375 L 0.296875 -10.21875 L 1.84375 -10.90625 L 2.515625 -13.1875 L 3.453125 -13.1875 L 3.453125 -10.703125 L 6.5625 -10.703125 L 6.5625 -9.4375 L 3.453125 -9.4375 L 3.453125 -3.140625 C 3.453125 -2.492188 3.601562 -2 3.90625 -1.65625 C 4.21875 -1.3125 4.640625 -1.140625 5.171875 -1.140625 Z M 5.171875 -1.140625 "/></g></g></g><g fill="#299640" fill-opacity="1"><g transform="translate(332.910332, 65.658929)"><g><path d="M 3.34375 0 L 1.71875 0 L 1.71875 -10.703125 L 3.34375 -10.703125 Z M 1.578125 -13.609375 C 1.578125 -13.972656 1.664062 -14.238281 1.84375 -14.40625 C 2.03125 -14.582031 2.265625 -14.671875 2.546875 -14.671875 C 2.804688 -14.671875 3.03125 -14.582031 3.21875 -14.40625 C 3.40625 -14.238281 3.5 -13.972656 3.5 -13.609375 C 3.5 -13.242188 3.40625 -12.96875 3.21875 -12.78125 C 3.03125 -12.601562 2.804688 -12.515625 2.546875 -12.515625 C 2.265625 -12.515625 2.03125 -12.601562 1.84375 -12.78125 C 1.664062 -12.96875 1.578125 -13.242188 1.578125 -13.609375 Z M 1.578125 -13.609375 "/></g></g></g><g fill="#299640" fill-opacity="1"><g transform="translate(337.96695, 65.658929)"><g><path d="M 10.953125 -5.359375 C 10.953125 -3.617188 10.515625 -2.253906 9.640625 -1.265625 C 8.765625 -0.285156 7.550781 0.203125 6 0.203125 C 5.039062 0.203125 4.1875 -0.0195312 3.4375 -0.46875 C 2.695312 -0.925781 2.125 -1.570312 1.71875 -2.40625 C 1.320312 -3.25 1.125 -4.234375 1.125 -5.359375 C 1.125 -7.109375 1.554688 -8.46875 2.421875 -9.4375 C 3.296875 -10.414062 4.507812 -10.90625 6.0625 -10.90625 C 7.5625 -10.90625 8.75 -10.40625 9.625 -9.40625 C 10.507812 -8.40625 10.953125 -7.054688 10.953125 -5.359375 Z M 2.796875 -5.359375 C 2.796875 -3.992188 3.066406 -2.953125 3.609375 -2.234375 C 4.160156 -1.515625 4.96875 -1.15625 6.03125 -1.15625 C 7.09375 -1.15625 7.898438 -1.507812 8.453125 -2.21875 C 9.003906 -2.9375 9.28125 -3.984375 9.28125 -5.359375 C 9.28125 -6.722656 9.003906 -7.753906 8.453125 -8.453125 C 7.898438 -9.160156 7.085938 -9.515625 6.015625 -9.515625 C 4.953125 -9.515625 4.148438 -9.164062 3.609375 -8.46875 C 3.066406 -7.78125 2.796875 -6.742188 2.796875 -5.359375 Z M 2.796875 -5.359375 "/></g></g></g><g fill="#299640" fill-opacity="1"><g transform="translate(350.04232, 65.658929)"><g><path d="M 9.046875 0 L 9.046875 -6.921875 C 9.046875 -7.796875 8.847656 -8.445312 8.453125 -8.875 C 8.054688 -9.300781 7.429688 -9.515625 6.578125 -9.515625 C 5.460938 -9.515625 4.644531 -9.210938 4.125 -8.609375 C 3.601562 -8.003906 3.34375 -7.003906 3.34375 -5.609375 L 3.34375 0 L 1.71875 0 L 1.71875 -10.703125 L 3.03125 -10.703125 L 3.296875 -9.234375 L 3.375 -9.234375 C 3.707031 -9.765625 4.171875 -10.175781 4.765625 -10.46875 C 5.367188 -10.757812 6.039062 -10.90625 6.78125 -10.90625 C 8.070312 -10.90625 9.039062 -10.59375 9.6875 -9.96875 C 10.34375 -9.34375 10.671875 -8.347656 10.671875 -6.984375 L 10.671875 0 Z M 9.046875 0 "/></g></g></g></svg>